G04 #@! TF.FileFunction,Legend,Bot*
%FSLAX46Y46*%
G04 Gerber Fmt 4.6, Leading zero omitted, Abs format (unit mm)*
G04 Created by KiCad (PCBNEW 4.0.6) date 09/02/17 13:52:09*
%MOMM*%
%LPD*%
G01*
G04 APERTURE LIST*
%ADD10C,0.100000*%
%ADD11C,0.300000*%
%ADD12C,0.150000*%
%ADD13C,0.120000*%
%ADD14C,0.063500*%
%ADD15C,0.127000*%
G04 APERTURE END LIST*
D10*
D11*
X170252570Y-140038667D02*
X169284951Y-140038667D01*
X170446094Y-140619238D02*
X169768761Y-138587238D01*
X169091428Y-140619238D01*
X167543237Y-140522476D02*
X167736761Y-140619238D01*
X168123809Y-140619238D01*
X168317333Y-140522476D01*
X168414094Y-140425714D01*
X168510856Y-140232190D01*
X168510856Y-139651619D01*
X168414094Y-139458095D01*
X168317333Y-139361333D01*
X168123809Y-139264571D01*
X167736761Y-139264571D01*
X167543237Y-139361333D01*
X165801523Y-140522476D02*
X165995047Y-140619238D01*
X166382095Y-140619238D01*
X166575619Y-140522476D01*
X166672380Y-140425714D01*
X166769142Y-140232190D01*
X166769142Y-139651619D01*
X166672380Y-139458095D01*
X166575619Y-139361333D01*
X166382095Y-139264571D01*
X165995047Y-139264571D01*
X165801523Y-139361333D01*
X164156571Y-140522476D02*
X164350095Y-140619238D01*
X164737143Y-140619238D01*
X164930666Y-140522476D01*
X165027428Y-140328952D01*
X165027428Y-139554857D01*
X164930666Y-139361333D01*
X164737143Y-139264571D01*
X164350095Y-139264571D01*
X164156571Y-139361333D01*
X164059809Y-139554857D01*
X164059809Y-139748381D01*
X165027428Y-139941905D01*
X162898667Y-140619238D02*
X163092191Y-140522476D01*
X163188952Y-140328952D01*
X163188952Y-138587238D01*
X199928237Y-81691238D02*
X199928237Y-79659238D01*
X199154142Y-79659238D01*
X198960618Y-79756000D01*
X198863857Y-79852762D01*
X198767095Y-80046286D01*
X198767095Y-80336571D01*
X198863857Y-80530095D01*
X198960618Y-80626857D01*
X199154142Y-80723619D01*
X199928237Y-80723619D01*
X197605952Y-81691238D02*
X197799476Y-81594476D01*
X197896237Y-81497714D01*
X197992999Y-81304190D01*
X197992999Y-80723619D01*
X197896237Y-80530095D01*
X197799476Y-80433333D01*
X197605952Y-80336571D01*
X197315666Y-80336571D01*
X197122142Y-80433333D01*
X197025380Y-80530095D01*
X196928618Y-80723619D01*
X196928618Y-81304190D01*
X197025380Y-81497714D01*
X197122142Y-81594476D01*
X197315666Y-81691238D01*
X197605952Y-81691238D01*
X196251285Y-80336571D02*
X195864238Y-81691238D01*
X195477190Y-80723619D01*
X195090142Y-81691238D01*
X194703095Y-80336571D01*
X193154904Y-81594476D02*
X193348428Y-81691238D01*
X193735476Y-81691238D01*
X193928999Y-81594476D01*
X194025761Y-81400952D01*
X194025761Y-80626857D01*
X193928999Y-80433333D01*
X193735476Y-80336571D01*
X193348428Y-80336571D01*
X193154904Y-80433333D01*
X193058142Y-80626857D01*
X193058142Y-80820381D01*
X194025761Y-81013905D01*
X192187285Y-81691238D02*
X192187285Y-80336571D01*
X192187285Y-80723619D02*
X192090524Y-80530095D01*
X191993762Y-80433333D01*
X191800238Y-80336571D01*
X191606714Y-80336571D01*
X188703857Y-80626857D02*
X188413571Y-80723619D01*
X188316810Y-80820381D01*
X188220048Y-81013905D01*
X188220048Y-81304190D01*
X188316810Y-81497714D01*
X188413571Y-81594476D01*
X188607095Y-81691238D01*
X189381190Y-81691238D01*
X189381190Y-79659238D01*
X188703857Y-79659238D01*
X188510333Y-79756000D01*
X188413571Y-79852762D01*
X188316810Y-80046286D01*
X188316810Y-80239810D01*
X188413571Y-80433333D01*
X188510333Y-80530095D01*
X188703857Y-80626857D01*
X189381190Y-80626857D01*
X187058905Y-81691238D02*
X187252429Y-81594476D01*
X187349190Y-81497714D01*
X187445952Y-81304190D01*
X187445952Y-80723619D01*
X187349190Y-80530095D01*
X187252429Y-80433333D01*
X187058905Y-80336571D01*
X186768619Y-80336571D01*
X186575095Y-80433333D01*
X186478333Y-80530095D01*
X186381571Y-80723619D01*
X186381571Y-81304190D01*
X186478333Y-81497714D01*
X186575095Y-81594476D01*
X186768619Y-81691238D01*
X187058905Y-81691238D01*
X185220429Y-81691238D02*
X185413953Y-81594476D01*
X185510714Y-81497714D01*
X185607476Y-81304190D01*
X185607476Y-80723619D01*
X185510714Y-80530095D01*
X185413953Y-80433333D01*
X185220429Y-80336571D01*
X184930143Y-80336571D01*
X184736619Y-80433333D01*
X184639857Y-80530095D01*
X184543095Y-80723619D01*
X184543095Y-81304190D01*
X184639857Y-81497714D01*
X184736619Y-81594476D01*
X184930143Y-81691238D01*
X185220429Y-81691238D01*
X183769000Y-81594476D02*
X183575477Y-81691238D01*
X183188429Y-81691238D01*
X182994905Y-81594476D01*
X182898143Y-81400952D01*
X182898143Y-81304190D01*
X182994905Y-81110667D01*
X183188429Y-81013905D01*
X183478715Y-81013905D01*
X183672238Y-80917143D01*
X183769000Y-80723619D01*
X183769000Y-80626857D01*
X183672238Y-80433333D01*
X183478715Y-80336571D01*
X183188429Y-80336571D01*
X182994905Y-80433333D01*
X182317572Y-80336571D02*
X181543477Y-80336571D01*
X182027286Y-79659238D02*
X182027286Y-81400952D01*
X181930525Y-81594476D01*
X181737001Y-81691238D01*
X181543477Y-81691238D01*
X103432427Y-80071667D02*
X102464808Y-80071667D01*
X103625951Y-80652238D02*
X102948618Y-78620238D01*
X102271285Y-80652238D01*
X100723094Y-79297571D02*
X100723094Y-80652238D01*
X101593951Y-79297571D02*
X101593951Y-80361952D01*
X101497190Y-80555476D01*
X101303666Y-80652238D01*
X101013380Y-80652238D01*
X100819856Y-80555476D01*
X100723094Y-80458714D01*
X98884618Y-80652238D02*
X98884618Y-78620238D01*
X98884618Y-80555476D02*
X99078142Y-80652238D01*
X99465190Y-80652238D01*
X99658714Y-80555476D01*
X99755475Y-80458714D01*
X99852237Y-80265190D01*
X99852237Y-79684619D01*
X99755475Y-79491095D01*
X99658714Y-79394333D01*
X99465190Y-79297571D01*
X99078142Y-79297571D01*
X98884618Y-79394333D01*
X97916999Y-80652238D02*
X97916999Y-79297571D01*
X97916999Y-78620238D02*
X98013761Y-78717000D01*
X97916999Y-78813762D01*
X97820238Y-78717000D01*
X97916999Y-78620238D01*
X97916999Y-78813762D01*
X96659095Y-80652238D02*
X96852619Y-80555476D01*
X96949380Y-80458714D01*
X97046142Y-80265190D01*
X97046142Y-79684619D01*
X96949380Y-79491095D01*
X96852619Y-79394333D01*
X96659095Y-79297571D01*
X96368809Y-79297571D01*
X96175285Y-79394333D01*
X96078523Y-79491095D01*
X95981761Y-79684619D01*
X95981761Y-80265190D01*
X96078523Y-80458714D01*
X96175285Y-80555476D01*
X96368809Y-80652238D01*
X96659095Y-80652238D01*
X101690713Y-83419667D02*
X100723094Y-83419667D01*
X101884237Y-84000238D02*
X101206904Y-81968238D01*
X100529571Y-84000238D01*
X99852237Y-84000238D02*
X99852237Y-82645571D01*
X99852237Y-82839095D02*
X99755476Y-82742333D01*
X99561952Y-82645571D01*
X99271666Y-82645571D01*
X99078142Y-82742333D01*
X98981380Y-82935857D01*
X98981380Y-84000238D01*
X98981380Y-82935857D02*
X98884618Y-82742333D01*
X98691095Y-82645571D01*
X98400809Y-82645571D01*
X98207285Y-82742333D01*
X98110523Y-82935857D01*
X98110523Y-84000238D01*
X97142904Y-82645571D02*
X97142904Y-84677571D01*
X97142904Y-82742333D02*
X96949381Y-82645571D01*
X96562333Y-82645571D01*
X96368809Y-82742333D01*
X96272047Y-82839095D01*
X96175285Y-83032619D01*
X96175285Y-83613190D01*
X96272047Y-83806714D01*
X96368809Y-83903476D01*
X96562333Y-84000238D01*
X96949381Y-84000238D01*
X97142904Y-83903476D01*
X134861903Y-81047167D02*
X133894284Y-81047167D01*
X135055427Y-81627738D02*
X134378094Y-79595738D01*
X133700761Y-81627738D01*
X132152570Y-80273071D02*
X132152570Y-81627738D01*
X133023427Y-80273071D02*
X133023427Y-81337452D01*
X132926666Y-81530976D01*
X132733142Y-81627738D01*
X132442856Y-81627738D01*
X132249332Y-81530976D01*
X132152570Y-81434214D01*
X130314094Y-81627738D02*
X130314094Y-79595738D01*
X130314094Y-81530976D02*
X130507618Y-81627738D01*
X130894666Y-81627738D01*
X131088190Y-81530976D01*
X131184951Y-81434214D01*
X131281713Y-81240690D01*
X131281713Y-80660119D01*
X131184951Y-80466595D01*
X131088190Y-80369833D01*
X130894666Y-80273071D01*
X130507618Y-80273071D01*
X130314094Y-80369833D01*
X129346475Y-81627738D02*
X129346475Y-80273071D01*
X129346475Y-79595738D02*
X129443237Y-79692500D01*
X129346475Y-79789262D01*
X129249714Y-79692500D01*
X129346475Y-79595738D01*
X129346475Y-79789262D01*
X128088571Y-81627738D02*
X128282095Y-81530976D01*
X128378856Y-81434214D01*
X128475618Y-81240690D01*
X128475618Y-80660119D01*
X128378856Y-80466595D01*
X128282095Y-80369833D01*
X128088571Y-80273071D01*
X127798285Y-80273071D01*
X127604761Y-80369833D01*
X127507999Y-80466595D01*
X127411237Y-80660119D01*
X127411237Y-81240690D01*
X127507999Y-81434214D01*
X127604761Y-81530976D01*
X127798285Y-81627738D01*
X128088571Y-81627738D01*
X124314857Y-80563357D02*
X124992190Y-80563357D01*
X124992190Y-81627738D02*
X124992190Y-79595738D01*
X124024571Y-79595738D01*
X123444000Y-79595738D02*
X122089334Y-81627738D01*
X122089334Y-79595738D02*
X123444000Y-81627738D01*
X162006642Y-66838286D02*
X160990642Y-66838286D01*
X160555213Y-68434857D02*
X162006642Y-68434857D01*
X162006642Y-65386857D01*
X160555213Y-65386857D01*
X159684356Y-66402857D02*
X158523213Y-66402857D01*
X159248928Y-65386857D02*
X159248928Y-67999429D01*
X159103785Y-68289714D01*
X158813499Y-68434857D01*
X158523213Y-68434857D01*
X157507214Y-68434857D02*
X157507214Y-65386857D01*
X156200928Y-68434857D02*
X156200928Y-66838286D01*
X156346071Y-66548000D01*
X156636357Y-66402857D01*
X157071785Y-66402857D01*
X157362071Y-66548000D01*
X157507214Y-66693143D01*
X153443214Y-68434857D02*
X153443214Y-66838286D01*
X153588357Y-66548000D01*
X153878643Y-66402857D01*
X154459214Y-66402857D01*
X154749500Y-66548000D01*
X153443214Y-68289714D02*
X153733500Y-68434857D01*
X154459214Y-68434857D01*
X154749500Y-68289714D01*
X154894643Y-67999429D01*
X154894643Y-67709143D01*
X154749500Y-67418857D01*
X154459214Y-67273714D01*
X153733500Y-67273714D01*
X153443214Y-67128571D01*
X151991786Y-66402857D02*
X151991786Y-68434857D01*
X151991786Y-66693143D02*
X151846643Y-66548000D01*
X151556357Y-66402857D01*
X151120929Y-66402857D01*
X150830643Y-66548000D01*
X150685500Y-66838286D01*
X150685500Y-68434857D01*
X149088929Y-65386857D02*
X149379215Y-65967429D01*
X147927786Y-68289714D02*
X147637500Y-68434857D01*
X147056928Y-68434857D01*
X146766643Y-68289714D01*
X146621500Y-67999429D01*
X146621500Y-67854286D01*
X146766643Y-67564000D01*
X147056928Y-67418857D01*
X147492357Y-67418857D01*
X147782643Y-67273714D01*
X147927786Y-66983429D01*
X147927786Y-66838286D01*
X147782643Y-66548000D01*
X147492357Y-66402857D01*
X147056928Y-66402857D01*
X146766643Y-66548000D01*
X143138071Y-68289714D02*
X142702642Y-68434857D01*
X141976928Y-68434857D01*
X141686642Y-68289714D01*
X141541499Y-68144571D01*
X141396356Y-67854286D01*
X141396356Y-67564000D01*
X141541499Y-67273714D01*
X141686642Y-67128571D01*
X141976928Y-66983429D01*
X142557499Y-66838286D01*
X142847785Y-66693143D01*
X142992928Y-66548000D01*
X143138071Y-66257714D01*
X143138071Y-65967429D01*
X142992928Y-65677143D01*
X142847785Y-65532000D01*
X142557499Y-65386857D01*
X141831785Y-65386857D01*
X141396356Y-65532000D01*
X140090071Y-66402857D02*
X140090071Y-69450857D01*
X140090071Y-66548000D02*
X139799785Y-66402857D01*
X139219214Y-66402857D01*
X138928928Y-66548000D01*
X138783785Y-66693143D01*
X138638642Y-66983429D01*
X138638642Y-67854286D01*
X138783785Y-68144571D01*
X138928928Y-68289714D01*
X139219214Y-68434857D01*
X139799785Y-68434857D01*
X140090071Y-68289714D01*
X136026071Y-68434857D02*
X136026071Y-66838286D01*
X136171214Y-66548000D01*
X136461500Y-66402857D01*
X137042071Y-66402857D01*
X137332357Y-66548000D01*
X136026071Y-68289714D02*
X136316357Y-68434857D01*
X137042071Y-68434857D01*
X137332357Y-68289714D01*
X137477500Y-67999429D01*
X137477500Y-67709143D01*
X137332357Y-67418857D01*
X137042071Y-67273714D01*
X136316357Y-67273714D01*
X136026071Y-67128571D01*
X133268357Y-68289714D02*
X133558643Y-68434857D01*
X134139214Y-68434857D01*
X134429500Y-68289714D01*
X134574643Y-68144571D01*
X134719786Y-67854286D01*
X134719786Y-66983429D01*
X134574643Y-66693143D01*
X134429500Y-66548000D01*
X134139214Y-66402857D01*
X133558643Y-66402857D01*
X133268357Y-66548000D01*
X130800929Y-68289714D02*
X131091215Y-68434857D01*
X131671786Y-68434857D01*
X131962072Y-68289714D01*
X132107215Y-67999429D01*
X132107215Y-66838286D01*
X131962072Y-66548000D01*
X131671786Y-66402857D01*
X131091215Y-66402857D01*
X130800929Y-66548000D01*
X130655786Y-66838286D01*
X130655786Y-67128571D01*
X132107215Y-67418857D01*
X127462643Y-65386857D02*
X125720929Y-65386857D01*
X126591786Y-68434857D02*
X126591786Y-65386857D01*
X124269500Y-68434857D02*
X124559786Y-68289714D01*
X124704929Y-68144571D01*
X124850072Y-67854286D01*
X124850072Y-66983429D01*
X124704929Y-66693143D01*
X124559786Y-66548000D01*
X124269500Y-66402857D01*
X123834072Y-66402857D01*
X123543786Y-66548000D01*
X123398643Y-66693143D01*
X123253500Y-66983429D01*
X123253500Y-67854286D01*
X123398643Y-68144571D01*
X123543786Y-68289714D01*
X123834072Y-68434857D01*
X124269500Y-68434857D01*
X122237500Y-66402857D02*
X121511786Y-68434857D01*
X120786072Y-66402857D02*
X121511786Y-68434857D01*
X121802072Y-69160571D01*
X121947215Y-69305714D01*
X122237500Y-69450857D01*
X121478524Y-119346738D02*
X122155857Y-118379119D01*
X122639666Y-119346738D02*
X122639666Y-117314738D01*
X121865571Y-117314738D01*
X121672047Y-117411500D01*
X121575286Y-117508262D01*
X121478524Y-117701786D01*
X121478524Y-117992071D01*
X121575286Y-118185595D01*
X121672047Y-118282357D01*
X121865571Y-118379119D01*
X122639666Y-118379119D01*
X119736809Y-117992071D02*
X119736809Y-119346738D01*
X120607666Y-117992071D02*
X120607666Y-119056452D01*
X120510905Y-119249976D01*
X120317381Y-119346738D01*
X120027095Y-119346738D01*
X119833571Y-119249976D01*
X119736809Y-119153214D01*
X118769190Y-117992071D02*
X118769190Y-119346738D01*
X118769190Y-118185595D02*
X118672429Y-118088833D01*
X118478905Y-117992071D01*
X118188619Y-117992071D01*
X117995095Y-118088833D01*
X117898333Y-118282357D01*
X117898333Y-119346738D01*
X126298475Y-103916238D02*
X126298475Y-101884238D01*
X125524380Y-101884238D01*
X125330856Y-101981000D01*
X125234095Y-102077762D01*
X125137333Y-102271286D01*
X125137333Y-102561571D01*
X125234095Y-102755095D01*
X125330856Y-102851857D01*
X125524380Y-102948619D01*
X126298475Y-102948619D01*
X124266475Y-103916238D02*
X124266475Y-102561571D01*
X124266475Y-102948619D02*
X124169714Y-102755095D01*
X124072952Y-102658333D01*
X123879428Y-102561571D01*
X123685904Y-102561571D01*
X122718285Y-103916238D02*
X122911809Y-103819476D01*
X123008570Y-103722714D01*
X123105332Y-103529190D01*
X123105332Y-102948619D01*
X123008570Y-102755095D01*
X122911809Y-102658333D01*
X122718285Y-102561571D01*
X122427999Y-102561571D01*
X122234475Y-102658333D01*
X122137713Y-102755095D01*
X122040951Y-102948619D01*
X122040951Y-103529190D01*
X122137713Y-103722714D01*
X122234475Y-103819476D01*
X122427999Y-103916238D01*
X122718285Y-103916238D01*
X120299237Y-102561571D02*
X120299237Y-104206524D01*
X120395999Y-104400048D01*
X120492761Y-104496810D01*
X120686285Y-104593571D01*
X120976571Y-104593571D01*
X121170094Y-104496810D01*
X120299237Y-103819476D02*
X120492761Y-103916238D01*
X120879809Y-103916238D01*
X121073333Y-103819476D01*
X121170094Y-103722714D01*
X121266856Y-103529190D01*
X121266856Y-102948619D01*
X121170094Y-102755095D01*
X121073333Y-102658333D01*
X120879809Y-102561571D01*
X120492761Y-102561571D01*
X120299237Y-102658333D01*
X119331618Y-103916238D02*
X119331618Y-102561571D01*
X119331618Y-102948619D02*
X119234857Y-102755095D01*
X119138095Y-102658333D01*
X118944571Y-102561571D01*
X118751047Y-102561571D01*
X117202856Y-103916238D02*
X117202856Y-102851857D01*
X117299618Y-102658333D01*
X117493142Y-102561571D01*
X117880190Y-102561571D01*
X118073713Y-102658333D01*
X117202856Y-103819476D02*
X117396380Y-103916238D01*
X117880190Y-103916238D01*
X118073713Y-103819476D01*
X118170475Y-103625952D01*
X118170475Y-103432429D01*
X118073713Y-103238905D01*
X117880190Y-103142143D01*
X117396380Y-103142143D01*
X117202856Y-103045381D01*
X116235237Y-103916238D02*
X116235237Y-102561571D01*
X116235237Y-102755095D02*
X116138476Y-102658333D01*
X115944952Y-102561571D01*
X115654666Y-102561571D01*
X115461142Y-102658333D01*
X115364380Y-102851857D01*
X115364380Y-103916238D01*
X115364380Y-102851857D02*
X115267618Y-102658333D01*
X115074095Y-102561571D01*
X114783809Y-102561571D01*
X114590285Y-102658333D01*
X114493523Y-102851857D01*
X114493523Y-103916238D01*
D12*
X175196500Y-69913500D02*
X175196500Y-92773500D01*
X175196500Y-92773500D02*
X204406500Y-92773500D01*
X204406500Y-92773500D02*
X204406500Y-69913500D01*
X204406500Y-69913500D02*
X175196500Y-69913500D01*
D13*
X183391500Y-72513500D02*
X183391500Y-69853500D01*
X196151500Y-72513500D02*
X183391500Y-72513500D01*
X196151500Y-69853500D02*
X183391500Y-69853500D01*
X196151500Y-72513500D02*
X196151500Y-69853500D01*
X197421500Y-72513500D02*
X198751500Y-72513500D01*
X198751500Y-72513500D02*
X198751500Y-71183500D01*
D14*
X111391618Y-131124960D02*
G75*
G03X111391618Y-131124960I-901618J0D01*
G01*
X97418026Y-131124960D02*
G75*
G03X97418026Y-131124960I-898026J0D01*
G01*
X104403026Y-105346500D02*
G75*
G03X104403026Y-105346500I-898026J0D01*
G01*
D15*
X97295894Y-131124960D02*
G75*
G03X97295894Y-131124960I-775894J0D01*
G01*
X95420180Y-131124960D02*
X97622360Y-131124960D01*
X96520000Y-130025140D02*
X96520000Y-132227320D01*
X111265894Y-131124960D02*
G75*
G03X111265894Y-131124960I-775894J0D01*
G01*
X109387640Y-131124960D02*
X111589820Y-131124960D01*
X110490000Y-130025140D02*
X110490000Y-132227320D01*
X104280894Y-105346500D02*
G75*
G03X104280894Y-105346500I-775894J0D01*
G01*
X102405180Y-105346500D02*
X104604820Y-105346500D01*
X103505000Y-104246680D02*
X103505000Y-106446320D01*
D12*
X107251500Y-94170500D02*
X107251500Y-70040500D01*
X107251500Y-70040500D02*
X92011500Y-70040500D01*
X92011500Y-70040500D02*
X92011500Y-94170500D01*
X107251500Y-94170500D02*
X92011500Y-94170500D01*
D13*
X93221500Y-92960500D02*
X93221500Y-90300500D01*
X103441500Y-92960500D02*
X93221500Y-92960500D01*
X103441500Y-90300500D02*
X93221500Y-90300500D01*
X103441500Y-92960500D02*
X103441500Y-90300500D01*
X104711500Y-92960500D02*
X106041500Y-92960500D01*
X106041500Y-92960500D02*
X106041500Y-91630500D01*
X158067500Y-123119500D02*
X156697500Y-123119500D01*
X156697500Y-123119500D02*
X156697500Y-105099500D01*
X156697500Y-105099500D02*
X161437500Y-105099500D01*
X161437500Y-105099500D02*
X161437500Y-123119500D01*
X161437500Y-123119500D02*
X160067500Y-123119500D01*
X160067500Y-123119500D02*
G75*
G03X158067500Y-123119500I-1000000J0D01*
G01*
D12*
X109093000Y-93218000D02*
X109093000Y-70358000D01*
X147193000Y-93218000D02*
X147193000Y-70358000D01*
X147193000Y-70358000D02*
X109093000Y-70358000D01*
X147193000Y-93218000D02*
X109093000Y-93218000D01*
D13*
X112843000Y-93278000D02*
X112843000Y-90618000D01*
X138303000Y-93278000D02*
X112843000Y-93278000D01*
X138303000Y-90618000D02*
X112843000Y-90618000D01*
X138303000Y-93278000D02*
X138303000Y-90618000D01*
X139573000Y-93278000D02*
X140903000Y-93278000D01*
X140903000Y-93278000D02*
X140903000Y-91948000D01*
X131261500Y-99520500D02*
X131261500Y-98150500D01*
X131261500Y-98150500D02*
X151821500Y-98150500D01*
X151821500Y-98150500D02*
X151821500Y-102890500D01*
X151821500Y-102890500D02*
X131261500Y-102890500D01*
X131261500Y-102890500D02*
X131261500Y-101520500D01*
X131261500Y-101520500D02*
G75*
G03X131261500Y-99520500I0J1000000D01*
G01*
X175466500Y-126294500D02*
X174096500Y-126294500D01*
X174096500Y-126294500D02*
X174096500Y-95574500D01*
X174096500Y-95574500D02*
X178836500Y-95574500D01*
X178836500Y-95574500D02*
X178836500Y-126294500D01*
X178836500Y-126294500D02*
X177466500Y-126294500D01*
X177466500Y-126294500D02*
G75*
G03X175466500Y-126294500I-1000000J0D01*
G01*
D12*
X154749500Y-150622000D02*
X154749500Y-130302000D01*
X154749500Y-130302000D02*
X175069500Y-130302000D01*
X175069500Y-130302000D02*
X175069500Y-150622000D01*
X175069500Y-150622000D02*
X154749500Y-150622000D01*
D13*
X155959500Y-130242000D02*
X158619500Y-130242000D01*
X155959500Y-148082000D02*
X155959500Y-130242000D01*
X158619500Y-148082000D02*
X158619500Y-130242000D01*
X155959500Y-148082000D02*
X158619500Y-148082000D01*
X155959500Y-149352000D02*
X155959500Y-150682000D01*
X155959500Y-150682000D02*
X157289500Y-150682000D01*
D12*
X118110000Y-116459000D02*
X118110000Y-105029000D01*
X118110000Y-105029000D02*
X122174000Y-105029000D01*
X122174000Y-105029000D02*
X122174000Y-116713000D01*
X122174000Y-116713000D02*
X118110000Y-116713000D01*
X118110000Y-116713000D02*
X118110000Y-116459000D01*
D13*
X118812000Y-107001000D02*
X121472000Y-107001000D01*
X118812000Y-112141000D02*
X118812000Y-107001000D01*
X121472000Y-112141000D02*
X121472000Y-107001000D01*
X118812000Y-112141000D02*
X121472000Y-112141000D01*
X118812000Y-113411000D02*
X118812000Y-114741000D01*
X118812000Y-114741000D02*
X120142000Y-114741000D01*
X171060000Y-73752000D02*
X171060000Y-72552000D01*
X169300000Y-72552000D02*
X169300000Y-73752000D01*
X152625500Y-87851500D02*
X152625500Y-88551500D01*
X153825500Y-88551500D02*
X153825500Y-87851500D01*
X147224000Y-113312500D02*
X147924000Y-113312500D01*
X147924000Y-112112500D02*
X147224000Y-112112500D01*
X116424000Y-127540500D02*
X116424000Y-126840500D01*
X115224000Y-126840500D02*
X115224000Y-127540500D01*
X117884500Y-140240500D02*
X117884500Y-139540500D01*
X116684500Y-139540500D02*
X116684500Y-140240500D01*
X178783500Y-141506500D02*
X179483500Y-141506500D01*
X179483500Y-140306500D02*
X178783500Y-140306500D01*
X150911000Y-129063000D02*
X150911000Y-129763000D01*
X152111000Y-129763000D02*
X152111000Y-129063000D01*
X152174500Y-146781000D02*
X152174500Y-146081000D01*
X150974500Y-146081000D02*
X150974500Y-146781000D01*
D12*
X181038405Y-68349881D02*
X181038405Y-69159405D01*
X180990786Y-69254643D01*
X180943167Y-69302262D01*
X180847929Y-69349881D01*
X180657452Y-69349881D01*
X180562214Y-69302262D01*
X180514595Y-69254643D01*
X180466976Y-69159405D01*
X180466976Y-68349881D01*
X180086024Y-68349881D02*
X179419357Y-68349881D01*
X179847929Y-69349881D01*
X114962214Y-98669929D02*
X114962214Y-97145929D01*
X114454214Y-98234500D01*
X113946214Y-97145929D01*
X113946214Y-98669929D01*
X112422214Y-98669929D02*
X113293071Y-98669929D01*
X112857643Y-98669929D02*
X112857643Y-97145929D01*
X113002786Y-97363643D01*
X113147928Y-97508786D01*
X113293071Y-97581357D01*
X110517214Y-99114429D02*
X110517214Y-97590429D01*
X109936642Y-97590429D01*
X109791500Y-97663000D01*
X109718928Y-97735571D01*
X109646357Y-97880714D01*
X109646357Y-98098429D01*
X109718928Y-98243571D01*
X109791500Y-98316143D01*
X109936642Y-98388714D01*
X110517214Y-98388714D01*
X108122357Y-99114429D02*
X108630357Y-98388714D01*
X108993214Y-99114429D02*
X108993214Y-97590429D01*
X108412642Y-97590429D01*
X108267500Y-97663000D01*
X108194928Y-97735571D01*
X108122357Y-97880714D01*
X108122357Y-98098429D01*
X108194928Y-98243571D01*
X108267500Y-98316143D01*
X108412642Y-98388714D01*
X108993214Y-98388714D01*
X107178928Y-97590429D02*
X106888642Y-97590429D01*
X106743500Y-97663000D01*
X106598357Y-97808143D01*
X106525785Y-98098429D01*
X106525785Y-98606429D01*
X106598357Y-98896714D01*
X106743500Y-99041857D01*
X106888642Y-99114429D01*
X107178928Y-99114429D01*
X107324071Y-99041857D01*
X107469214Y-98896714D01*
X107541785Y-98606429D01*
X107541785Y-98098429D01*
X107469214Y-97808143D01*
X107324071Y-97663000D01*
X107178928Y-97590429D01*
X106235500Y-99259571D02*
X105074357Y-99259571D01*
X104929214Y-97590429D02*
X104058357Y-97590429D01*
X104493786Y-99114429D02*
X104493786Y-97590429D01*
X102679500Y-99114429D02*
X103187500Y-98388714D01*
X103550357Y-99114429D02*
X103550357Y-97590429D01*
X102969785Y-97590429D01*
X102824643Y-97663000D01*
X102752071Y-97735571D01*
X102679500Y-97880714D01*
X102679500Y-98098429D01*
X102752071Y-98243571D01*
X102824643Y-98316143D01*
X102969785Y-98388714D01*
X103550357Y-98388714D01*
X102026357Y-99114429D02*
X102026357Y-97590429D01*
X101300643Y-99114429D02*
X101300643Y-97590429D01*
X100429786Y-99114429D01*
X100429786Y-97590429D01*
X99704072Y-99114429D02*
X99704072Y-97590429D01*
X98833215Y-99114429D02*
X99486358Y-98243571D01*
X98833215Y-97590429D02*
X99704072Y-98461286D01*
X98180072Y-98316143D02*
X97672072Y-98316143D01*
X97454358Y-99114429D02*
X98180072Y-99114429D01*
X98180072Y-97590429D01*
X97454358Y-97590429D01*
X97018929Y-97590429D02*
X96148072Y-97590429D01*
X96583501Y-99114429D02*
X96583501Y-97590429D01*
X100298095Y-68349881D02*
X100298095Y-69159405D01*
X100250476Y-69254643D01*
X100202857Y-69302262D01*
X100107619Y-69349881D01*
X99917142Y-69349881D01*
X99821904Y-69302262D01*
X99774285Y-69254643D01*
X99726666Y-69159405D01*
X99726666Y-68349881D01*
X98726666Y-69349881D02*
X99298095Y-69349881D01*
X99012381Y-69349881D02*
X99012381Y-68349881D01*
X99107619Y-68492738D01*
X99202857Y-68587976D01*
X99298095Y-68635595D01*
X98107619Y-68349881D02*
X98012380Y-68349881D01*
X97917142Y-68397500D01*
X97869523Y-68445119D01*
X97821904Y-68540357D01*
X97774285Y-68730833D01*
X97774285Y-68968929D01*
X97821904Y-69159405D01*
X97869523Y-69254643D01*
X97917142Y-69302262D01*
X98012380Y-69349881D01*
X98107619Y-69349881D01*
X98202857Y-69302262D01*
X98250476Y-69254643D01*
X98298095Y-69159405D01*
X98345714Y-68968929D01*
X98345714Y-68730833D01*
X98298095Y-68540357D01*
X98250476Y-68445119D01*
X98202857Y-68397500D01*
X98107619Y-68349881D01*
X159829405Y-123571881D02*
X159829405Y-124381405D01*
X159781786Y-124476643D01*
X159734167Y-124524262D01*
X159638929Y-124571881D01*
X159448452Y-124571881D01*
X159353214Y-124524262D01*
X159305595Y-124476643D01*
X159257976Y-124381405D01*
X159257976Y-123571881D01*
X158353214Y-123571881D02*
X158543691Y-123571881D01*
X158638929Y-123619500D01*
X158686548Y-123667119D01*
X158781786Y-123809976D01*
X158829405Y-124000452D01*
X158829405Y-124381405D01*
X158781786Y-124476643D01*
X158734167Y-124524262D01*
X158638929Y-124571881D01*
X158448452Y-124571881D01*
X158353214Y-124524262D01*
X158305595Y-124476643D01*
X158257976Y-124381405D01*
X158257976Y-124143310D01*
X158305595Y-124048071D01*
X158353214Y-124000452D01*
X158448452Y-123952833D01*
X158638929Y-123952833D01*
X158734167Y-124000452D01*
X158781786Y-124048071D01*
X158829405Y-124143310D01*
X113156905Y-68794381D02*
X113156905Y-69603905D01*
X113109286Y-69699143D01*
X113061667Y-69746762D01*
X112966429Y-69794381D01*
X112775952Y-69794381D01*
X112680714Y-69746762D01*
X112633095Y-69699143D01*
X112585476Y-69603905D01*
X112585476Y-68794381D01*
X111633095Y-68794381D02*
X112109286Y-68794381D01*
X112156905Y-69270571D01*
X112109286Y-69222952D01*
X112014048Y-69175333D01*
X111775952Y-69175333D01*
X111680714Y-69222952D01*
X111633095Y-69270571D01*
X111585476Y-69365810D01*
X111585476Y-69603905D01*
X111633095Y-69699143D01*
X111680714Y-69746762D01*
X111775952Y-69794381D01*
X112014048Y-69794381D01*
X112109286Y-69746762D01*
X112156905Y-69699143D01*
X129713881Y-99758595D02*
X130523405Y-99758595D01*
X130618643Y-99806214D01*
X130666262Y-99853833D01*
X130713881Y-99949071D01*
X130713881Y-100139548D01*
X130666262Y-100234786D01*
X130618643Y-100282405D01*
X130523405Y-100330024D01*
X129713881Y-100330024D01*
X129713881Y-100710976D02*
X129713881Y-101330024D01*
X130094833Y-100996690D01*
X130094833Y-101139548D01*
X130142452Y-101234786D01*
X130190071Y-101282405D01*
X130285310Y-101330024D01*
X130523405Y-101330024D01*
X130618643Y-101282405D01*
X130666262Y-101234786D01*
X130713881Y-101139548D01*
X130713881Y-100853833D01*
X130666262Y-100758595D01*
X130618643Y-100710976D01*
X177228405Y-126746881D02*
X177228405Y-127556405D01*
X177180786Y-127651643D01*
X177133167Y-127699262D01*
X177037929Y-127746881D01*
X176847452Y-127746881D01*
X176752214Y-127699262D01*
X176704595Y-127651643D01*
X176656976Y-127556405D01*
X176656976Y-126746881D01*
X176228405Y-126842119D02*
X176180786Y-126794500D01*
X176085548Y-126746881D01*
X175847452Y-126746881D01*
X175752214Y-126794500D01*
X175704595Y-126842119D01*
X175656976Y-126937357D01*
X175656976Y-127032595D01*
X175704595Y-127175452D01*
X176276024Y-127746881D01*
X175656976Y-127746881D01*
X171068905Y-128865381D02*
X171068905Y-129674905D01*
X171021286Y-129770143D01*
X170973667Y-129817762D01*
X170878429Y-129865381D01*
X170687952Y-129865381D01*
X170592714Y-129817762D01*
X170545095Y-129770143D01*
X170497476Y-129674905D01*
X170497476Y-128865381D01*
X169497476Y-129865381D02*
X170068905Y-129865381D01*
X169783191Y-129865381D02*
X169783191Y-128865381D01*
X169878429Y-129008238D01*
X169973667Y-129103476D01*
X170068905Y-129151095D01*
X124396405Y-114831762D02*
X124253548Y-114879381D01*
X124015452Y-114879381D01*
X123920214Y-114831762D01*
X123872595Y-114784143D01*
X123824976Y-114688905D01*
X123824976Y-114593667D01*
X123872595Y-114498429D01*
X123920214Y-114450810D01*
X124015452Y-114403190D01*
X124205929Y-114355571D01*
X124301167Y-114307952D01*
X124348786Y-114260333D01*
X124396405Y-114165095D01*
X124396405Y-114069857D01*
X124348786Y-113974619D01*
X124301167Y-113927000D01*
X124205929Y-113879381D01*
X123967833Y-113879381D01*
X123824976Y-113927000D01*
X122872595Y-114879381D02*
X123444024Y-114879381D01*
X123158310Y-114879381D02*
X123158310Y-113879381D01*
X123253548Y-114022238D01*
X123348786Y-114117476D01*
X123444024Y-114165095D01*
X168932381Y-72985334D02*
X168456190Y-72652000D01*
X168932381Y-72413905D02*
X167932381Y-72413905D01*
X167932381Y-72794858D01*
X167980000Y-72890096D01*
X168027619Y-72937715D01*
X168122857Y-72985334D01*
X168265714Y-72985334D01*
X168360952Y-72937715D01*
X168408571Y-72890096D01*
X168456190Y-72794858D01*
X168456190Y-72413905D01*
X167932381Y-73890096D02*
X167932381Y-73413905D01*
X168408571Y-73366286D01*
X168360952Y-73413905D01*
X168313333Y-73509143D01*
X168313333Y-73747239D01*
X168360952Y-73842477D01*
X168408571Y-73890096D01*
X168503810Y-73937715D01*
X168741905Y-73937715D01*
X168837143Y-73890096D01*
X168884762Y-73842477D01*
X168932381Y-73747239D01*
X168932381Y-73509143D01*
X168884762Y-73413905D01*
X168837143Y-73366286D01*
X155678143Y-87495143D02*
X155725762Y-87447524D01*
X155773381Y-87304667D01*
X155773381Y-87209429D01*
X155725762Y-87066571D01*
X155630524Y-86971333D01*
X155535286Y-86923714D01*
X155344810Y-86876095D01*
X155201952Y-86876095D01*
X155011476Y-86923714D01*
X154916238Y-86971333D01*
X154821000Y-87066571D01*
X154773381Y-87209429D01*
X154773381Y-87304667D01*
X154821000Y-87447524D01*
X154868619Y-87495143D01*
X155773381Y-88447524D02*
X155773381Y-87876095D01*
X155773381Y-88161809D02*
X154773381Y-88161809D01*
X154916238Y-88066571D01*
X155011476Y-87971333D01*
X155059095Y-87876095D01*
X155773381Y-89399905D02*
X155773381Y-88828476D01*
X155773381Y-89114190D02*
X154773381Y-89114190D01*
X154916238Y-89018952D01*
X155011476Y-88923714D01*
X155059095Y-88828476D01*
X147740666Y-114319643D02*
X147788285Y-114367262D01*
X147931142Y-114414881D01*
X148026380Y-114414881D01*
X148169238Y-114367262D01*
X148264476Y-114272024D01*
X148312095Y-114176786D01*
X148359714Y-113986310D01*
X148359714Y-113843452D01*
X148312095Y-113652976D01*
X148264476Y-113557738D01*
X148169238Y-113462500D01*
X148026380Y-113414881D01*
X147931142Y-113414881D01*
X147788285Y-113462500D01*
X147740666Y-113510119D01*
X147169238Y-113843452D02*
X147264476Y-113795833D01*
X147312095Y-113748214D01*
X147359714Y-113652976D01*
X147359714Y-113605357D01*
X147312095Y-113510119D01*
X147264476Y-113462500D01*
X147169238Y-113414881D01*
X146978761Y-113414881D01*
X146883523Y-113462500D01*
X146835904Y-113510119D01*
X146788285Y-113605357D01*
X146788285Y-113652976D01*
X146835904Y-113748214D01*
X146883523Y-113795833D01*
X146978761Y-113843452D01*
X147169238Y-113843452D01*
X147264476Y-113891071D01*
X147312095Y-113938690D01*
X147359714Y-114033929D01*
X147359714Y-114224405D01*
X147312095Y-114319643D01*
X147264476Y-114367262D01*
X147169238Y-114414881D01*
X146978761Y-114414881D01*
X146883523Y-114367262D01*
X146835904Y-114319643D01*
X146788285Y-114224405D01*
X146788285Y-114033929D01*
X146835904Y-113938690D01*
X146883523Y-113891071D01*
X146978761Y-113843452D01*
X117431143Y-127023834D02*
X117478762Y-126976215D01*
X117526381Y-126833358D01*
X117526381Y-126738120D01*
X117478762Y-126595262D01*
X117383524Y-126500024D01*
X117288286Y-126452405D01*
X117097810Y-126404786D01*
X116954952Y-126404786D01*
X116764476Y-126452405D01*
X116669238Y-126500024D01*
X116574000Y-126595262D01*
X116526381Y-126738120D01*
X116526381Y-126833358D01*
X116574000Y-126976215D01*
X116621619Y-127023834D01*
X117526381Y-127500024D02*
X117526381Y-127690500D01*
X117478762Y-127785739D01*
X117431143Y-127833358D01*
X117288286Y-127928596D01*
X117097810Y-127976215D01*
X116716857Y-127976215D01*
X116621619Y-127928596D01*
X116574000Y-127880977D01*
X116526381Y-127785739D01*
X116526381Y-127595262D01*
X116574000Y-127500024D01*
X116621619Y-127452405D01*
X116716857Y-127404786D01*
X116954952Y-127404786D01*
X117050190Y-127452405D01*
X117097810Y-127500024D01*
X117145429Y-127595262D01*
X117145429Y-127785739D01*
X117097810Y-127880977D01*
X117050190Y-127928596D01*
X116954952Y-127976215D01*
X118891643Y-139247643D02*
X118939262Y-139200024D01*
X118986881Y-139057167D01*
X118986881Y-138961929D01*
X118939262Y-138819071D01*
X118844024Y-138723833D01*
X118748786Y-138676214D01*
X118558310Y-138628595D01*
X118415452Y-138628595D01*
X118224976Y-138676214D01*
X118129738Y-138723833D01*
X118034500Y-138819071D01*
X117986881Y-138961929D01*
X117986881Y-139057167D01*
X118034500Y-139200024D01*
X118082119Y-139247643D01*
X118986881Y-140200024D02*
X118986881Y-139628595D01*
X118986881Y-139914309D02*
X117986881Y-139914309D01*
X118129738Y-139819071D01*
X118224976Y-139723833D01*
X118272595Y-139628595D01*
X117986881Y-140819071D02*
X117986881Y-140914310D01*
X118034500Y-141009548D01*
X118082119Y-141057167D01*
X118177357Y-141104786D01*
X118367833Y-141152405D01*
X118605929Y-141152405D01*
X118796405Y-141104786D01*
X118891643Y-141057167D01*
X118939262Y-141009548D01*
X118986881Y-140914310D01*
X118986881Y-140819071D01*
X118939262Y-140723833D01*
X118891643Y-140676214D01*
X118796405Y-140628595D01*
X118605929Y-140580976D01*
X118367833Y-140580976D01*
X118177357Y-140628595D01*
X118082119Y-140676214D01*
X118034500Y-140723833D01*
X117986881Y-140819071D01*
X179300166Y-142513643D02*
X179347785Y-142561262D01*
X179490642Y-142608881D01*
X179585880Y-142608881D01*
X179728738Y-142561262D01*
X179823976Y-142466024D01*
X179871595Y-142370786D01*
X179919214Y-142180310D01*
X179919214Y-142037452D01*
X179871595Y-141846976D01*
X179823976Y-141751738D01*
X179728738Y-141656500D01*
X179585880Y-141608881D01*
X179490642Y-141608881D01*
X179347785Y-141656500D01*
X179300166Y-141704119D01*
X178443023Y-141942214D02*
X178443023Y-142608881D01*
X178681119Y-141561262D02*
X178919214Y-142275548D01*
X178300166Y-142275548D01*
X150618143Y-129246334D02*
X150665762Y-129198715D01*
X150713381Y-129055858D01*
X150713381Y-128960620D01*
X150665762Y-128817762D01*
X150570524Y-128722524D01*
X150475286Y-128674905D01*
X150284810Y-128627286D01*
X150141952Y-128627286D01*
X149951476Y-128674905D01*
X149856238Y-128722524D01*
X149761000Y-128817762D01*
X149713381Y-128960620D01*
X149713381Y-129055858D01*
X149761000Y-129198715D01*
X149808619Y-129246334D01*
X149808619Y-129627286D02*
X149761000Y-129674905D01*
X149713381Y-129770143D01*
X149713381Y-130008239D01*
X149761000Y-130103477D01*
X149808619Y-130151096D01*
X149903857Y-130198715D01*
X149999095Y-130198715D01*
X150141952Y-130151096D01*
X150713381Y-129579667D01*
X150713381Y-130198715D01*
X153181643Y-146264334D02*
X153229262Y-146216715D01*
X153276881Y-146073858D01*
X153276881Y-145978620D01*
X153229262Y-145835762D01*
X153134024Y-145740524D01*
X153038786Y-145692905D01*
X152848310Y-145645286D01*
X152705452Y-145645286D01*
X152514976Y-145692905D01*
X152419738Y-145740524D01*
X152324500Y-145835762D01*
X152276881Y-145978620D01*
X152276881Y-146073858D01*
X152324500Y-146216715D01*
X152372119Y-146264334D01*
X153276881Y-147216715D02*
X153276881Y-146645286D01*
X153276881Y-146931000D02*
X152276881Y-146931000D01*
X152419738Y-146835762D01*
X152514976Y-146740524D01*
X152562595Y-146645286D01*
M02*
