G04 #@! TF.FileFunction,Legend,Top*
%FSLAX46Y46*%
G04 Gerber Fmt 4.6, Leading zero omitted, Abs format (unit mm)*
G04 Created by KiCad (PCBNEW 4.0.6) date 09/02/17 13:52:09*
%MOMM*%
%LPD*%
G01*
G04 APERTURE LIST*
%ADD10C,0.100000*%
%ADD11C,0.300000*%
%ADD12C,0.120000*%
%ADD13C,0.150000*%
%ADD14C,0.101600*%
G04 APERTURE END LIST*
D10*
D11*
X135805333Y-134560714D02*
X135708571Y-134657476D01*
X135418286Y-134754238D01*
X135224762Y-134754238D01*
X134934476Y-134657476D01*
X134740952Y-134463952D01*
X134644191Y-134270429D01*
X134547429Y-133883381D01*
X134547429Y-133593095D01*
X134644191Y-133206048D01*
X134740952Y-133012524D01*
X134934476Y-132819000D01*
X135224762Y-132722238D01*
X135418286Y-132722238D01*
X135708571Y-132819000D01*
X135805333Y-132915762D01*
X136966476Y-134754238D02*
X136772952Y-134657476D01*
X136676191Y-134560714D01*
X136579429Y-134367190D01*
X136579429Y-133786619D01*
X136676191Y-133593095D01*
X136772952Y-133496333D01*
X136966476Y-133399571D01*
X137256762Y-133399571D01*
X137450286Y-133496333D01*
X137547048Y-133593095D01*
X137643810Y-133786619D01*
X137643810Y-134367190D01*
X137547048Y-134560714D01*
X137450286Y-134657476D01*
X137256762Y-134754238D01*
X136966476Y-134754238D01*
X138804952Y-134754238D02*
X138611428Y-134657476D01*
X138514667Y-134463952D01*
X138514667Y-132722238D01*
X139869333Y-134754238D02*
X139675809Y-134657476D01*
X139579048Y-134560714D01*
X139482286Y-134367190D01*
X139482286Y-133786619D01*
X139579048Y-133593095D01*
X139675809Y-133496333D01*
X139869333Y-133399571D01*
X140159619Y-133399571D01*
X140353143Y-133496333D01*
X140449905Y-133593095D01*
X140546667Y-133786619D01*
X140546667Y-134367190D01*
X140449905Y-134560714D01*
X140353143Y-134657476D01*
X140159619Y-134754238D01*
X139869333Y-134754238D01*
X141417524Y-134754238D02*
X141417524Y-133399571D01*
X141417524Y-133786619D02*
X141514285Y-133593095D01*
X141611047Y-133496333D01*
X141804571Y-133399571D01*
X141998095Y-133399571D01*
X134112001Y-138005476D02*
X134402286Y-138102238D01*
X134886096Y-138102238D01*
X135079620Y-138005476D01*
X135176382Y-137908714D01*
X135273143Y-137715190D01*
X135273143Y-137521667D01*
X135176382Y-137328143D01*
X135079620Y-137231381D01*
X134886096Y-137134619D01*
X134499048Y-137037857D01*
X134305524Y-136941095D01*
X134208763Y-136844333D01*
X134112001Y-136650810D01*
X134112001Y-136457286D01*
X134208763Y-136263762D01*
X134305524Y-136167000D01*
X134499048Y-136070238D01*
X134982858Y-136070238D01*
X135273143Y-136167000D01*
X136918096Y-138005476D02*
X136724572Y-138102238D01*
X136337524Y-138102238D01*
X136144001Y-138005476D01*
X136047239Y-137811952D01*
X136047239Y-137037857D01*
X136144001Y-136844333D01*
X136337524Y-136747571D01*
X136724572Y-136747571D01*
X136918096Y-136844333D01*
X137014858Y-137037857D01*
X137014858Y-137231381D01*
X136047239Y-137424905D01*
X137885715Y-136747571D02*
X137885715Y-138102238D01*
X137885715Y-136941095D02*
X137982476Y-136844333D01*
X138176000Y-136747571D01*
X138466286Y-136747571D01*
X138659810Y-136844333D01*
X138756572Y-137037857D01*
X138756572Y-138102238D01*
X139627429Y-138005476D02*
X139820952Y-138102238D01*
X140208000Y-138102238D01*
X140401524Y-138005476D01*
X140498286Y-137811952D01*
X140498286Y-137715190D01*
X140401524Y-137521667D01*
X140208000Y-137424905D01*
X139917714Y-137424905D01*
X139724191Y-137328143D01*
X139627429Y-137134619D01*
X139627429Y-137037857D01*
X139724191Y-136844333D01*
X139917714Y-136747571D01*
X140208000Y-136747571D01*
X140401524Y-136844333D01*
X142143238Y-138005476D02*
X141949714Y-138102238D01*
X141562666Y-138102238D01*
X141369143Y-138005476D01*
X141272381Y-137811952D01*
X141272381Y-137037857D01*
X141369143Y-136844333D01*
X141562666Y-136747571D01*
X141949714Y-136747571D01*
X142143238Y-136844333D01*
X142240000Y-137037857D01*
X142240000Y-137231381D01*
X141272381Y-137424905D01*
X120758858Y-66838286D02*
X121774858Y-66838286D01*
X122210287Y-68434857D02*
X120758858Y-68434857D01*
X120758858Y-65386857D01*
X122210287Y-65386857D01*
X123081144Y-66402857D02*
X124242287Y-66402857D01*
X123516572Y-65386857D02*
X123516572Y-67999429D01*
X123661715Y-68289714D01*
X123952001Y-68434857D01*
X124242287Y-68434857D01*
X125258286Y-68434857D02*
X125258286Y-65386857D01*
X126564572Y-68434857D02*
X126564572Y-66838286D01*
X126419429Y-66548000D01*
X126129143Y-66402857D01*
X125693715Y-66402857D01*
X125403429Y-66548000D01*
X125258286Y-66693143D01*
X129322286Y-68434857D02*
X129322286Y-66838286D01*
X129177143Y-66548000D01*
X128886857Y-66402857D01*
X128306286Y-66402857D01*
X128016000Y-66548000D01*
X129322286Y-68289714D02*
X129032000Y-68434857D01*
X128306286Y-68434857D01*
X128016000Y-68289714D01*
X127870857Y-67999429D01*
X127870857Y-67709143D01*
X128016000Y-67418857D01*
X128306286Y-67273714D01*
X129032000Y-67273714D01*
X129322286Y-67128571D01*
X130773714Y-66402857D02*
X130773714Y-68434857D01*
X130773714Y-66693143D02*
X130918857Y-66548000D01*
X131209143Y-66402857D01*
X131644571Y-66402857D01*
X131934857Y-66548000D01*
X132080000Y-66838286D01*
X132080000Y-68434857D01*
X133676571Y-65386857D02*
X133386285Y-65967429D01*
X134837714Y-68289714D02*
X135128000Y-68434857D01*
X135708572Y-68434857D01*
X135998857Y-68289714D01*
X136144000Y-67999429D01*
X136144000Y-67854286D01*
X135998857Y-67564000D01*
X135708572Y-67418857D01*
X135273143Y-67418857D01*
X134982857Y-67273714D01*
X134837714Y-66983429D01*
X134837714Y-66838286D01*
X134982857Y-66548000D01*
X135273143Y-66402857D01*
X135708572Y-66402857D01*
X135998857Y-66548000D01*
X139627429Y-68289714D02*
X140062858Y-68434857D01*
X140788572Y-68434857D01*
X141078858Y-68289714D01*
X141224001Y-68144571D01*
X141369144Y-67854286D01*
X141369144Y-67564000D01*
X141224001Y-67273714D01*
X141078858Y-67128571D01*
X140788572Y-66983429D01*
X140208001Y-66838286D01*
X139917715Y-66693143D01*
X139772572Y-66548000D01*
X139627429Y-66257714D01*
X139627429Y-65967429D01*
X139772572Y-65677143D01*
X139917715Y-65532000D01*
X140208001Y-65386857D01*
X140933715Y-65386857D01*
X141369144Y-65532000D01*
X142675429Y-66402857D02*
X142675429Y-69450857D01*
X142675429Y-66548000D02*
X142965715Y-66402857D01*
X143546286Y-66402857D01*
X143836572Y-66548000D01*
X143981715Y-66693143D01*
X144126858Y-66983429D01*
X144126858Y-67854286D01*
X143981715Y-68144571D01*
X143836572Y-68289714D01*
X143546286Y-68434857D01*
X142965715Y-68434857D01*
X142675429Y-68289714D01*
X146739429Y-68434857D02*
X146739429Y-66838286D01*
X146594286Y-66548000D01*
X146304000Y-66402857D01*
X145723429Y-66402857D01*
X145433143Y-66548000D01*
X146739429Y-68289714D02*
X146449143Y-68434857D01*
X145723429Y-68434857D01*
X145433143Y-68289714D01*
X145288000Y-67999429D01*
X145288000Y-67709143D01*
X145433143Y-67418857D01*
X145723429Y-67273714D01*
X146449143Y-67273714D01*
X146739429Y-67128571D01*
X149497143Y-68289714D02*
X149206857Y-68434857D01*
X148626286Y-68434857D01*
X148336000Y-68289714D01*
X148190857Y-68144571D01*
X148045714Y-67854286D01*
X148045714Y-66983429D01*
X148190857Y-66693143D01*
X148336000Y-66548000D01*
X148626286Y-66402857D01*
X149206857Y-66402857D01*
X149497143Y-66548000D01*
X151964571Y-68289714D02*
X151674285Y-68434857D01*
X151093714Y-68434857D01*
X150803428Y-68289714D01*
X150658285Y-67999429D01*
X150658285Y-66838286D01*
X150803428Y-66548000D01*
X151093714Y-66402857D01*
X151674285Y-66402857D01*
X151964571Y-66548000D01*
X152109714Y-66838286D01*
X152109714Y-67128571D01*
X150658285Y-67418857D01*
X155302857Y-65386857D02*
X157044571Y-65386857D01*
X156173714Y-68434857D02*
X156173714Y-65386857D01*
X158496000Y-68434857D02*
X158205714Y-68289714D01*
X158060571Y-68144571D01*
X157915428Y-67854286D01*
X157915428Y-66983429D01*
X158060571Y-66693143D01*
X158205714Y-66548000D01*
X158496000Y-66402857D01*
X158931428Y-66402857D01*
X159221714Y-66548000D01*
X159366857Y-66693143D01*
X159512000Y-66983429D01*
X159512000Y-67854286D01*
X159366857Y-68144571D01*
X159221714Y-68289714D01*
X158931428Y-68434857D01*
X158496000Y-68434857D01*
X160528000Y-66402857D02*
X161253714Y-68434857D01*
X161979428Y-66402857D02*
X161253714Y-68434857D01*
X160963428Y-69160571D01*
X160818285Y-69305714D01*
X160528000Y-69450857D01*
D10*
X112395000Y-97282000D02*
X112395000Y-131000500D01*
X110490000Y-132905500D02*
X96520000Y-132905500D01*
X94615000Y-131000500D02*
X94615000Y-96837500D01*
X94615000Y-96837500D02*
X95758000Y-96837500D01*
X95758000Y-96837500D02*
X97028000Y-95567500D01*
X97028000Y-95567500D02*
X106235500Y-95567500D01*
X106235500Y-95567500D02*
X107505500Y-96837500D01*
X107505500Y-96837500D02*
X112014000Y-96837500D01*
X112014000Y-96837500D02*
X112395000Y-97282000D01*
X112395000Y-131000500D02*
G75*
G02X110490000Y-132905500I-1905000J0D01*
G01*
X96520000Y-132905500D02*
G75*
G02X94615000Y-131000500I0J1905000D01*
G01*
D12*
X87884000Y-121412000D02*
X87884000Y-122936000D01*
X87884000Y-122936000D02*
X83312000Y-122936000D01*
X83312000Y-122936000D02*
X83312000Y-121412000D01*
X83312000Y-121412000D02*
X87884000Y-121412000D01*
X87884000Y-118872000D02*
X87884000Y-120396000D01*
X87884000Y-120396000D02*
X83312000Y-120396000D01*
X83312000Y-120396000D02*
X83312000Y-118872000D01*
X83312000Y-118872000D02*
X87884000Y-118872000D01*
X87884000Y-116332000D02*
X87884000Y-117856000D01*
X87884000Y-117856000D02*
X83312000Y-117856000D01*
X83312000Y-117856000D02*
X83312000Y-116332000D01*
X83312000Y-116332000D02*
X87884000Y-116332000D01*
X87884000Y-113792000D02*
X87884000Y-115316000D01*
X87884000Y-115316000D02*
X83312000Y-115316000D01*
X83312000Y-115316000D02*
X83312000Y-113792000D01*
X83312000Y-113792000D02*
X87884000Y-113792000D01*
X87884000Y-111252000D02*
X87884000Y-112776000D01*
X87884000Y-112776000D02*
X83312000Y-112776000D01*
X83312000Y-112776000D02*
X83312000Y-111252000D01*
X83312000Y-111252000D02*
X87884000Y-111252000D01*
X87884000Y-108712000D02*
X87884000Y-110236000D01*
X87884000Y-110236000D02*
X83312000Y-110236000D01*
X83312000Y-110236000D02*
X83312000Y-108712000D01*
X83312000Y-108712000D02*
X87884000Y-108712000D01*
X83312000Y-106172000D02*
X83312000Y-107696000D01*
X83312000Y-107696000D02*
X87884000Y-107696000D01*
X87884000Y-107696000D02*
X87884000Y-106172000D01*
X87884000Y-106172000D02*
X83312000Y-106172000D01*
X87884000Y-103632000D02*
X87884000Y-105156000D01*
X87884000Y-105156000D02*
X83312000Y-105156000D01*
X83312000Y-105156000D02*
X83312000Y-103632000D01*
X83312000Y-103632000D02*
X87884000Y-103632000D01*
X83312000Y-101092000D02*
X87884000Y-101092000D01*
X87884000Y-101092000D02*
X87884000Y-102616000D01*
X87884000Y-102616000D02*
X83312000Y-102616000D01*
X83312000Y-102616000D02*
X83312000Y-101092000D01*
X83312000Y-98552000D02*
X87884000Y-98552000D01*
X87884000Y-98552000D02*
X87884000Y-100076000D01*
X87884000Y-100076000D02*
X83312000Y-100076000D01*
X83312000Y-100076000D02*
X83312000Y-98552000D01*
X83312000Y-121920000D02*
X83312000Y-122428000D01*
X87884000Y-122428000D02*
X87884000Y-121920000D01*
X83312000Y-119380000D02*
X83312000Y-119888000D01*
X87884000Y-119888000D02*
X87884000Y-119380000D01*
X83312000Y-116840000D02*
X83312000Y-117348000D01*
X87884000Y-117348000D02*
X87884000Y-116840000D01*
X83312000Y-114300000D02*
X83312000Y-114808000D01*
X87884000Y-114808000D02*
X87884000Y-114300000D01*
X83312000Y-111760000D02*
X83312000Y-112268000D01*
X87884000Y-112268000D02*
X87884000Y-111760000D01*
X83312000Y-109220000D02*
X83312000Y-109728000D01*
X87884000Y-109728000D02*
X87884000Y-109220000D01*
X87884000Y-107188000D02*
X87884000Y-106680000D01*
X83312000Y-106680000D02*
X83312000Y-107188000D01*
X83312000Y-104140000D02*
X83312000Y-104648000D01*
X87884000Y-104648000D02*
X87884000Y-104140000D01*
X83312000Y-101600000D02*
X83312000Y-102108000D01*
X87884000Y-102108000D02*
X87884000Y-101600000D01*
X87884000Y-99060000D02*
X87884000Y-99568000D01*
X83312000Y-99568000D02*
X83312000Y-99060000D01*
X90424000Y-123444000D02*
X80264000Y-123444000D01*
X80264000Y-123444000D02*
X80264000Y-98044000D01*
X80264000Y-98044000D02*
X90424000Y-98044000D01*
X90424000Y-98044000D02*
X90424000Y-123444000D01*
D11*
X163322500Y-79248000D02*
G75*
G03X163322500Y-79248000I-445000J0D01*
G01*
D13*
X164782500Y-79883000D02*
X164782500Y-84963000D01*
X164782500Y-84963000D02*
X169862500Y-84963000D01*
X169862500Y-84963000D02*
X169862500Y-79883000D01*
X169862500Y-79883000D02*
X164782500Y-79883000D01*
D11*
X135166600Y-107378500D02*
G75*
G03X135166600Y-107378500I-445000J0D01*
G01*
D13*
X136626600Y-108013500D02*
X136626600Y-113093500D01*
X136626600Y-113093500D02*
X141706600Y-113093500D01*
X141706600Y-113093500D02*
X141706600Y-108013500D01*
X141706600Y-108013500D02*
X136626600Y-108013500D01*
D11*
X106998000Y-135509000D02*
G75*
G03X106998000Y-135509000I-445000J0D01*
G01*
D13*
X108458000Y-136144000D02*
X108458000Y-141224000D01*
X108458000Y-141224000D02*
X113538000Y-141224000D01*
X113538000Y-141224000D02*
X113538000Y-136144000D01*
X113538000Y-136144000D02*
X108458000Y-136144000D01*
D11*
X163322500Y-135509000D02*
G75*
G03X163322500Y-135509000I-445000J0D01*
G01*
D13*
X164782500Y-136144000D02*
X164782500Y-141224000D01*
X164782500Y-141224000D02*
X169862500Y-141224000D01*
X169862500Y-141224000D02*
X169862500Y-136144000D01*
X169862500Y-136144000D02*
X164782500Y-136144000D01*
D11*
X106998000Y-79248000D02*
G75*
G03X106998000Y-79248000I-445000J0D01*
G01*
D13*
X108458000Y-79883000D02*
X108458000Y-84963000D01*
X108458000Y-84963000D02*
X113538000Y-84963000D01*
X113538000Y-84963000D02*
X113538000Y-79883000D01*
X113538000Y-79883000D02*
X108458000Y-79883000D01*
X149542500Y-125857000D02*
X149542500Y-146177000D01*
X149542500Y-146177000D02*
X128587500Y-146177000D01*
X128587500Y-146177000D02*
X128587500Y-125857000D01*
X128587500Y-125857000D02*
X149542500Y-125857000D01*
D12*
X146307500Y-144967000D02*
X148967500Y-144967000D01*
X146307500Y-129667000D02*
X146307500Y-144967000D01*
X148967500Y-129667000D02*
X148967500Y-144967000D01*
X146307500Y-129667000D02*
X148967500Y-129667000D01*
X146307500Y-128397000D02*
X146307500Y-127067000D01*
X146307500Y-127067000D02*
X147637500Y-127067000D01*
X133385000Y-74431000D02*
X134585000Y-74431000D01*
X134585000Y-76191000D02*
X133385000Y-76191000D01*
X140935000Y-76191000D02*
X139735000Y-76191000D01*
X139735000Y-74431000D02*
X140935000Y-74431000D01*
X166144500Y-102035500D02*
X164944500Y-102035500D01*
X164944500Y-100275500D02*
X166144500Y-100275500D01*
X185919000Y-110461500D02*
X185919000Y-111661500D01*
X184159000Y-111661500D02*
X184159000Y-110461500D01*
X195580000Y-146939000D02*
X195580000Y-148463000D01*
X195580000Y-148463000D02*
X191008000Y-148463000D01*
X191008000Y-148463000D02*
X191008000Y-146939000D01*
X191008000Y-146939000D02*
X195580000Y-146939000D01*
X195580000Y-144399000D02*
X195580000Y-145923000D01*
X195580000Y-145923000D02*
X191008000Y-145923000D01*
X191008000Y-145923000D02*
X191008000Y-144399000D01*
X191008000Y-144399000D02*
X195580000Y-144399000D01*
X195580000Y-141859000D02*
X195580000Y-143383000D01*
X195580000Y-143383000D02*
X191008000Y-143383000D01*
X191008000Y-143383000D02*
X191008000Y-141859000D01*
X191008000Y-141859000D02*
X195580000Y-141859000D01*
X195580000Y-139319000D02*
X195580000Y-140843000D01*
X195580000Y-140843000D02*
X191008000Y-140843000D01*
X191008000Y-140843000D02*
X191008000Y-139319000D01*
X191008000Y-139319000D02*
X195580000Y-139319000D01*
X195580000Y-136779000D02*
X195580000Y-138303000D01*
X195580000Y-138303000D02*
X191008000Y-138303000D01*
X191008000Y-138303000D02*
X191008000Y-136779000D01*
X191008000Y-136779000D02*
X195580000Y-136779000D01*
X195580000Y-134239000D02*
X195580000Y-135763000D01*
X195580000Y-135763000D02*
X191008000Y-135763000D01*
X191008000Y-135763000D02*
X191008000Y-134239000D01*
X191008000Y-134239000D02*
X195580000Y-134239000D01*
X191008000Y-131699000D02*
X191008000Y-133223000D01*
X191008000Y-133223000D02*
X195580000Y-133223000D01*
X195580000Y-133223000D02*
X195580000Y-131699000D01*
X195580000Y-131699000D02*
X191008000Y-131699000D01*
X195580000Y-129159000D02*
X195580000Y-130683000D01*
X195580000Y-130683000D02*
X191008000Y-130683000D01*
X191008000Y-130683000D02*
X191008000Y-129159000D01*
X191008000Y-129159000D02*
X195580000Y-129159000D01*
X191008000Y-126619000D02*
X195580000Y-126619000D01*
X195580000Y-126619000D02*
X195580000Y-128143000D01*
X195580000Y-128143000D02*
X191008000Y-128143000D01*
X191008000Y-128143000D02*
X191008000Y-126619000D01*
X191008000Y-124079000D02*
X195580000Y-124079000D01*
X195580000Y-124079000D02*
X195580000Y-125603000D01*
X195580000Y-125603000D02*
X191008000Y-125603000D01*
X191008000Y-125603000D02*
X191008000Y-124079000D01*
X191008000Y-147447000D02*
X191008000Y-147955000D01*
X195580000Y-147955000D02*
X195580000Y-147447000D01*
X191008000Y-144907000D02*
X191008000Y-145415000D01*
X195580000Y-145415000D02*
X195580000Y-144907000D01*
X191008000Y-142367000D02*
X191008000Y-142875000D01*
X195580000Y-142875000D02*
X195580000Y-142367000D01*
X191008000Y-139827000D02*
X191008000Y-140335000D01*
X195580000Y-140335000D02*
X195580000Y-139827000D01*
X191008000Y-137287000D02*
X191008000Y-137795000D01*
X195580000Y-137795000D02*
X195580000Y-137287000D01*
X191008000Y-134747000D02*
X191008000Y-135255000D01*
X195580000Y-135255000D02*
X195580000Y-134747000D01*
X195580000Y-132715000D02*
X195580000Y-132207000D01*
X191008000Y-132207000D02*
X191008000Y-132715000D01*
X191008000Y-129667000D02*
X191008000Y-130175000D01*
X195580000Y-130175000D02*
X195580000Y-129667000D01*
X191008000Y-127127000D02*
X191008000Y-127635000D01*
X195580000Y-127635000D02*
X195580000Y-127127000D01*
X195580000Y-124587000D02*
X195580000Y-125095000D01*
X191008000Y-125095000D02*
X191008000Y-124587000D01*
X198120000Y-148971000D02*
X187960000Y-148971000D01*
X187960000Y-148971000D02*
X187960000Y-123571000D01*
X187960000Y-123571000D02*
X198120000Y-123571000D01*
X198120000Y-123571000D02*
X198120000Y-148971000D01*
X195580000Y-121412000D02*
X195580000Y-122936000D01*
X195580000Y-122936000D02*
X191008000Y-122936000D01*
X191008000Y-122936000D02*
X191008000Y-121412000D01*
X191008000Y-121412000D02*
X195580000Y-121412000D01*
X195580000Y-118872000D02*
X195580000Y-120396000D01*
X195580000Y-120396000D02*
X191008000Y-120396000D01*
X191008000Y-120396000D02*
X191008000Y-118872000D01*
X191008000Y-118872000D02*
X195580000Y-118872000D01*
X195580000Y-116332000D02*
X195580000Y-117856000D01*
X195580000Y-117856000D02*
X191008000Y-117856000D01*
X191008000Y-117856000D02*
X191008000Y-116332000D01*
X191008000Y-116332000D02*
X195580000Y-116332000D01*
X195580000Y-113792000D02*
X195580000Y-115316000D01*
X195580000Y-115316000D02*
X191008000Y-115316000D01*
X191008000Y-115316000D02*
X191008000Y-113792000D01*
X191008000Y-113792000D02*
X195580000Y-113792000D01*
X195580000Y-111252000D02*
X195580000Y-112776000D01*
X195580000Y-112776000D02*
X191008000Y-112776000D01*
X191008000Y-112776000D02*
X191008000Y-111252000D01*
X191008000Y-111252000D02*
X195580000Y-111252000D01*
X195580000Y-108712000D02*
X195580000Y-110236000D01*
X195580000Y-110236000D02*
X191008000Y-110236000D01*
X191008000Y-110236000D02*
X191008000Y-108712000D01*
X191008000Y-108712000D02*
X195580000Y-108712000D01*
X191008000Y-106172000D02*
X191008000Y-107696000D01*
X191008000Y-107696000D02*
X195580000Y-107696000D01*
X195580000Y-107696000D02*
X195580000Y-106172000D01*
X195580000Y-106172000D02*
X191008000Y-106172000D01*
X195580000Y-103632000D02*
X195580000Y-105156000D01*
X195580000Y-105156000D02*
X191008000Y-105156000D01*
X191008000Y-105156000D02*
X191008000Y-103632000D01*
X191008000Y-103632000D02*
X195580000Y-103632000D01*
X191008000Y-101092000D02*
X195580000Y-101092000D01*
X195580000Y-101092000D02*
X195580000Y-102616000D01*
X195580000Y-102616000D02*
X191008000Y-102616000D01*
X191008000Y-102616000D02*
X191008000Y-101092000D01*
X191008000Y-98552000D02*
X195580000Y-98552000D01*
X195580000Y-98552000D02*
X195580000Y-100076000D01*
X195580000Y-100076000D02*
X191008000Y-100076000D01*
X191008000Y-100076000D02*
X191008000Y-98552000D01*
X191008000Y-121920000D02*
X191008000Y-122428000D01*
X195580000Y-122428000D02*
X195580000Y-121920000D01*
X191008000Y-119380000D02*
X191008000Y-119888000D01*
X195580000Y-119888000D02*
X195580000Y-119380000D01*
X191008000Y-116840000D02*
X191008000Y-117348000D01*
X195580000Y-117348000D02*
X195580000Y-116840000D01*
X191008000Y-114300000D02*
X191008000Y-114808000D01*
X195580000Y-114808000D02*
X195580000Y-114300000D01*
X191008000Y-111760000D02*
X191008000Y-112268000D01*
X195580000Y-112268000D02*
X195580000Y-111760000D01*
X191008000Y-109220000D02*
X191008000Y-109728000D01*
X195580000Y-109728000D02*
X195580000Y-109220000D01*
X195580000Y-107188000D02*
X195580000Y-106680000D01*
X191008000Y-106680000D02*
X191008000Y-107188000D01*
X191008000Y-104140000D02*
X191008000Y-104648000D01*
X195580000Y-104648000D02*
X195580000Y-104140000D01*
X191008000Y-101600000D02*
X191008000Y-102108000D01*
X195580000Y-102108000D02*
X195580000Y-101600000D01*
X195580000Y-99060000D02*
X195580000Y-99568000D01*
X191008000Y-99568000D02*
X191008000Y-99060000D01*
X198120000Y-123444000D02*
X187960000Y-123444000D01*
X187960000Y-123444000D02*
X187960000Y-98044000D01*
X187960000Y-98044000D02*
X198120000Y-98044000D01*
X198120000Y-98044000D02*
X198120000Y-123444000D01*
X195580000Y-95885000D02*
X195580000Y-97409000D01*
X195580000Y-97409000D02*
X191008000Y-97409000D01*
X191008000Y-97409000D02*
X191008000Y-95885000D01*
X191008000Y-95885000D02*
X195580000Y-95885000D01*
X195580000Y-93345000D02*
X195580000Y-94869000D01*
X195580000Y-94869000D02*
X191008000Y-94869000D01*
X191008000Y-94869000D02*
X191008000Y-93345000D01*
X191008000Y-93345000D02*
X195580000Y-93345000D01*
X195580000Y-90805000D02*
X195580000Y-92329000D01*
X195580000Y-92329000D02*
X191008000Y-92329000D01*
X191008000Y-92329000D02*
X191008000Y-90805000D01*
X191008000Y-90805000D02*
X195580000Y-90805000D01*
X195580000Y-88265000D02*
X195580000Y-89789000D01*
X195580000Y-89789000D02*
X191008000Y-89789000D01*
X191008000Y-89789000D02*
X191008000Y-88265000D01*
X191008000Y-88265000D02*
X195580000Y-88265000D01*
X195580000Y-85725000D02*
X195580000Y-87249000D01*
X195580000Y-87249000D02*
X191008000Y-87249000D01*
X191008000Y-87249000D02*
X191008000Y-85725000D01*
X191008000Y-85725000D02*
X195580000Y-85725000D01*
X195580000Y-83185000D02*
X195580000Y-84709000D01*
X195580000Y-84709000D02*
X191008000Y-84709000D01*
X191008000Y-84709000D02*
X191008000Y-83185000D01*
X191008000Y-83185000D02*
X195580000Y-83185000D01*
X191008000Y-80645000D02*
X191008000Y-82169000D01*
X191008000Y-82169000D02*
X195580000Y-82169000D01*
X195580000Y-82169000D02*
X195580000Y-80645000D01*
X195580000Y-80645000D02*
X191008000Y-80645000D01*
X195580000Y-78105000D02*
X195580000Y-79629000D01*
X195580000Y-79629000D02*
X191008000Y-79629000D01*
X191008000Y-79629000D02*
X191008000Y-78105000D01*
X191008000Y-78105000D02*
X195580000Y-78105000D01*
X191008000Y-75565000D02*
X195580000Y-75565000D01*
X195580000Y-75565000D02*
X195580000Y-77089000D01*
X195580000Y-77089000D02*
X191008000Y-77089000D01*
X191008000Y-77089000D02*
X191008000Y-75565000D01*
X191008000Y-73025000D02*
X195580000Y-73025000D01*
X195580000Y-73025000D02*
X195580000Y-74549000D01*
X195580000Y-74549000D02*
X191008000Y-74549000D01*
X191008000Y-74549000D02*
X191008000Y-73025000D01*
X191008000Y-96393000D02*
X191008000Y-96901000D01*
X195580000Y-96901000D02*
X195580000Y-96393000D01*
X191008000Y-93853000D02*
X191008000Y-94361000D01*
X195580000Y-94361000D02*
X195580000Y-93853000D01*
X191008000Y-91313000D02*
X191008000Y-91821000D01*
X195580000Y-91821000D02*
X195580000Y-91313000D01*
X191008000Y-88773000D02*
X191008000Y-89281000D01*
X195580000Y-89281000D02*
X195580000Y-88773000D01*
X191008000Y-86233000D02*
X191008000Y-86741000D01*
X195580000Y-86741000D02*
X195580000Y-86233000D01*
X191008000Y-83693000D02*
X191008000Y-84201000D01*
X195580000Y-84201000D02*
X195580000Y-83693000D01*
X195580000Y-81661000D02*
X195580000Y-81153000D01*
X191008000Y-81153000D02*
X191008000Y-81661000D01*
X191008000Y-78613000D02*
X191008000Y-79121000D01*
X195580000Y-79121000D02*
X195580000Y-78613000D01*
X191008000Y-76073000D02*
X191008000Y-76581000D01*
X195580000Y-76581000D02*
X195580000Y-76073000D01*
X195580000Y-73533000D02*
X195580000Y-74041000D01*
X191008000Y-74041000D02*
X191008000Y-73533000D01*
X198120000Y-97917000D02*
X187960000Y-97917000D01*
X187960000Y-97917000D02*
X187960000Y-72517000D01*
X187960000Y-72517000D02*
X198120000Y-72517000D01*
X198120000Y-72517000D02*
X198120000Y-97917000D01*
X87884000Y-146939000D02*
X87884000Y-148463000D01*
X87884000Y-148463000D02*
X83312000Y-148463000D01*
X83312000Y-148463000D02*
X83312000Y-146939000D01*
X83312000Y-146939000D02*
X87884000Y-146939000D01*
X87884000Y-144399000D02*
X87884000Y-145923000D01*
X87884000Y-145923000D02*
X83312000Y-145923000D01*
X83312000Y-145923000D02*
X83312000Y-144399000D01*
X83312000Y-144399000D02*
X87884000Y-144399000D01*
X87884000Y-141859000D02*
X87884000Y-143383000D01*
X87884000Y-143383000D02*
X83312000Y-143383000D01*
X83312000Y-143383000D02*
X83312000Y-141859000D01*
X83312000Y-141859000D02*
X87884000Y-141859000D01*
X87884000Y-139319000D02*
X87884000Y-140843000D01*
X87884000Y-140843000D02*
X83312000Y-140843000D01*
X83312000Y-140843000D02*
X83312000Y-139319000D01*
X83312000Y-139319000D02*
X87884000Y-139319000D01*
X87884000Y-136779000D02*
X87884000Y-138303000D01*
X87884000Y-138303000D02*
X83312000Y-138303000D01*
X83312000Y-138303000D02*
X83312000Y-136779000D01*
X83312000Y-136779000D02*
X87884000Y-136779000D01*
X87884000Y-134239000D02*
X87884000Y-135763000D01*
X87884000Y-135763000D02*
X83312000Y-135763000D01*
X83312000Y-135763000D02*
X83312000Y-134239000D01*
X83312000Y-134239000D02*
X87884000Y-134239000D01*
X83312000Y-131699000D02*
X83312000Y-133223000D01*
X83312000Y-133223000D02*
X87884000Y-133223000D01*
X87884000Y-133223000D02*
X87884000Y-131699000D01*
X87884000Y-131699000D02*
X83312000Y-131699000D01*
X87884000Y-129159000D02*
X87884000Y-130683000D01*
X87884000Y-130683000D02*
X83312000Y-130683000D01*
X83312000Y-130683000D02*
X83312000Y-129159000D01*
X83312000Y-129159000D02*
X87884000Y-129159000D01*
X83312000Y-126619000D02*
X87884000Y-126619000D01*
X87884000Y-126619000D02*
X87884000Y-128143000D01*
X87884000Y-128143000D02*
X83312000Y-128143000D01*
X83312000Y-128143000D02*
X83312000Y-126619000D01*
X83312000Y-124079000D02*
X87884000Y-124079000D01*
X87884000Y-124079000D02*
X87884000Y-125603000D01*
X87884000Y-125603000D02*
X83312000Y-125603000D01*
X83312000Y-125603000D02*
X83312000Y-124079000D01*
X83312000Y-147447000D02*
X83312000Y-147955000D01*
X87884000Y-147955000D02*
X87884000Y-147447000D01*
X83312000Y-144907000D02*
X83312000Y-145415000D01*
X87884000Y-145415000D02*
X87884000Y-144907000D01*
X83312000Y-142367000D02*
X83312000Y-142875000D01*
X87884000Y-142875000D02*
X87884000Y-142367000D01*
X83312000Y-139827000D02*
X83312000Y-140335000D01*
X87884000Y-140335000D02*
X87884000Y-139827000D01*
X83312000Y-137287000D02*
X83312000Y-137795000D01*
X87884000Y-137795000D02*
X87884000Y-137287000D01*
X83312000Y-134747000D02*
X83312000Y-135255000D01*
X87884000Y-135255000D02*
X87884000Y-134747000D01*
X87884000Y-132715000D02*
X87884000Y-132207000D01*
X83312000Y-132207000D02*
X83312000Y-132715000D01*
X83312000Y-129667000D02*
X83312000Y-130175000D01*
X87884000Y-130175000D02*
X87884000Y-129667000D01*
X83312000Y-127127000D02*
X83312000Y-127635000D01*
X87884000Y-127635000D02*
X87884000Y-127127000D01*
X87884000Y-124587000D02*
X87884000Y-125095000D01*
X83312000Y-125095000D02*
X83312000Y-124587000D01*
X90424000Y-148971000D02*
X80264000Y-148971000D01*
X80264000Y-148971000D02*
X80264000Y-123571000D01*
X80264000Y-123571000D02*
X90424000Y-123571000D01*
X90424000Y-123571000D02*
X90424000Y-148971000D01*
X87884000Y-95885000D02*
X87884000Y-97409000D01*
X87884000Y-97409000D02*
X83312000Y-97409000D01*
X83312000Y-97409000D02*
X83312000Y-95885000D01*
X83312000Y-95885000D02*
X87884000Y-95885000D01*
X87884000Y-93345000D02*
X87884000Y-94869000D01*
X87884000Y-94869000D02*
X83312000Y-94869000D01*
X83312000Y-94869000D02*
X83312000Y-93345000D01*
X83312000Y-93345000D02*
X87884000Y-93345000D01*
X87884000Y-90805000D02*
X87884000Y-92329000D01*
X87884000Y-92329000D02*
X83312000Y-92329000D01*
X83312000Y-92329000D02*
X83312000Y-90805000D01*
X83312000Y-90805000D02*
X87884000Y-90805000D01*
X87884000Y-88265000D02*
X87884000Y-89789000D01*
X87884000Y-89789000D02*
X83312000Y-89789000D01*
X83312000Y-89789000D02*
X83312000Y-88265000D01*
X83312000Y-88265000D02*
X87884000Y-88265000D01*
X87884000Y-85725000D02*
X87884000Y-87249000D01*
X87884000Y-87249000D02*
X83312000Y-87249000D01*
X83312000Y-87249000D02*
X83312000Y-85725000D01*
X83312000Y-85725000D02*
X87884000Y-85725000D01*
X87884000Y-83185000D02*
X87884000Y-84709000D01*
X87884000Y-84709000D02*
X83312000Y-84709000D01*
X83312000Y-84709000D02*
X83312000Y-83185000D01*
X83312000Y-83185000D02*
X87884000Y-83185000D01*
X83312000Y-80645000D02*
X83312000Y-82169000D01*
X83312000Y-82169000D02*
X87884000Y-82169000D01*
X87884000Y-82169000D02*
X87884000Y-80645000D01*
X87884000Y-80645000D02*
X83312000Y-80645000D01*
X87884000Y-78105000D02*
X87884000Y-79629000D01*
X87884000Y-79629000D02*
X83312000Y-79629000D01*
X83312000Y-79629000D02*
X83312000Y-78105000D01*
X83312000Y-78105000D02*
X87884000Y-78105000D01*
X83312000Y-75565000D02*
X87884000Y-75565000D01*
X87884000Y-75565000D02*
X87884000Y-77089000D01*
X87884000Y-77089000D02*
X83312000Y-77089000D01*
X83312000Y-77089000D02*
X83312000Y-75565000D01*
X83312000Y-73025000D02*
X87884000Y-73025000D01*
X87884000Y-73025000D02*
X87884000Y-74549000D01*
X87884000Y-74549000D02*
X83312000Y-74549000D01*
X83312000Y-74549000D02*
X83312000Y-73025000D01*
X83312000Y-96393000D02*
X83312000Y-96901000D01*
X87884000Y-96901000D02*
X87884000Y-96393000D01*
X83312000Y-93853000D02*
X83312000Y-94361000D01*
X87884000Y-94361000D02*
X87884000Y-93853000D01*
X83312000Y-91313000D02*
X83312000Y-91821000D01*
X87884000Y-91821000D02*
X87884000Y-91313000D01*
X83312000Y-88773000D02*
X83312000Y-89281000D01*
X87884000Y-89281000D02*
X87884000Y-88773000D01*
X83312000Y-86233000D02*
X83312000Y-86741000D01*
X87884000Y-86741000D02*
X87884000Y-86233000D01*
X83312000Y-83693000D02*
X83312000Y-84201000D01*
X87884000Y-84201000D02*
X87884000Y-83693000D01*
X87884000Y-81661000D02*
X87884000Y-81153000D01*
X83312000Y-81153000D02*
X83312000Y-81661000D01*
X83312000Y-78613000D02*
X83312000Y-79121000D01*
X87884000Y-79121000D02*
X87884000Y-78613000D01*
X83312000Y-76073000D02*
X83312000Y-76581000D01*
X87884000Y-76581000D02*
X87884000Y-76073000D01*
X87884000Y-73533000D02*
X87884000Y-74041000D01*
X83312000Y-74041000D02*
X83312000Y-73533000D01*
X90424000Y-97917000D02*
X80264000Y-97917000D01*
X80264000Y-97917000D02*
X80264000Y-72517000D01*
X80264000Y-72517000D02*
X90424000Y-72517000D01*
X90424000Y-72517000D02*
X90424000Y-97917000D01*
X140177000Y-81562500D02*
X139477000Y-81562500D01*
X139477000Y-80362500D02*
X140177000Y-80362500D01*
X92675000Y-87597500D02*
X92675000Y-88297500D01*
X91475000Y-88297500D02*
X91475000Y-87597500D01*
X136934500Y-79914000D02*
X136934500Y-80614000D01*
X135734500Y-80614000D02*
X135734500Y-79914000D01*
X185639000Y-115537500D02*
X185639000Y-116237500D01*
X184439000Y-116237500D02*
X184439000Y-115537500D01*
D14*
D12*
X90779714Y-99348857D02*
X90779714Y-98148857D01*
X90779714Y-98720286D02*
X91465429Y-98720286D01*
X91465429Y-99348857D02*
X91465429Y-98148857D01*
X91979714Y-98263143D02*
X92036857Y-98206000D01*
X92151143Y-98148857D01*
X92436857Y-98148857D01*
X92551143Y-98206000D01*
X92608286Y-98263143D01*
X92665429Y-98377429D01*
X92665429Y-98491714D01*
X92608286Y-98663143D01*
X91922572Y-99348857D01*
X92665429Y-99348857D01*
D13*
X166084405Y-77747881D02*
X166084405Y-78557405D01*
X166132024Y-78652643D01*
X166179643Y-78700262D01*
X166274881Y-78747881D01*
X166465358Y-78747881D01*
X166560596Y-78700262D01*
X166608215Y-78652643D01*
X166655834Y-78557405D01*
X166655834Y-77747881D01*
X167655834Y-78747881D02*
X167084405Y-78747881D01*
X167370119Y-78747881D02*
X167370119Y-77747881D01*
X167274881Y-77890738D01*
X167179643Y-77985976D01*
X167084405Y-78033595D01*
X167989167Y-77747881D02*
X168608215Y-77747881D01*
X168274881Y-78128833D01*
X168417739Y-78128833D01*
X168512977Y-78176452D01*
X168560596Y-78224071D01*
X168608215Y-78319310D01*
X168608215Y-78557405D01*
X168560596Y-78652643D01*
X168512977Y-78700262D01*
X168417739Y-78747881D01*
X168132024Y-78747881D01*
X168036786Y-78700262D01*
X167989167Y-78652643D01*
X137826905Y-106449881D02*
X137826905Y-107259405D01*
X137874524Y-107354643D01*
X137922143Y-107402262D01*
X138017381Y-107449881D01*
X138207858Y-107449881D01*
X138303096Y-107402262D01*
X138350715Y-107354643D01*
X138398334Y-107259405D01*
X138398334Y-106449881D01*
X139398334Y-107449881D02*
X138826905Y-107449881D01*
X139112619Y-107449881D02*
X139112619Y-106449881D01*
X139017381Y-106592738D01*
X138922143Y-106687976D01*
X138826905Y-106735595D01*
X140350715Y-107449881D02*
X139779286Y-107449881D01*
X140065000Y-107449881D02*
X140065000Y-106449881D01*
X139969762Y-106592738D01*
X139874524Y-106687976D01*
X139779286Y-106735595D01*
X109505905Y-134326381D02*
X109505905Y-135135905D01*
X109553524Y-135231143D01*
X109601143Y-135278762D01*
X109696381Y-135326381D01*
X109886858Y-135326381D01*
X109982096Y-135278762D01*
X110029715Y-135231143D01*
X110077334Y-135135905D01*
X110077334Y-134326381D01*
X111077334Y-135326381D02*
X110505905Y-135326381D01*
X110791619Y-135326381D02*
X110791619Y-134326381D01*
X110696381Y-134469238D01*
X110601143Y-134564476D01*
X110505905Y-134612095D01*
X111458286Y-134421619D02*
X111505905Y-134374000D01*
X111601143Y-134326381D01*
X111839239Y-134326381D01*
X111934477Y-134374000D01*
X111982096Y-134421619D01*
X112029715Y-134516857D01*
X112029715Y-134612095D01*
X111982096Y-134754952D01*
X111410667Y-135326381D01*
X112029715Y-135326381D01*
X166433595Y-133945381D02*
X166433595Y-134754905D01*
X166481214Y-134850143D01*
X166528833Y-134897762D01*
X166624071Y-134945381D01*
X166814548Y-134945381D01*
X166909786Y-134897762D01*
X166957405Y-134850143D01*
X167005024Y-134754905D01*
X167005024Y-133945381D01*
X167528833Y-134945381D02*
X167719309Y-134945381D01*
X167814548Y-134897762D01*
X167862167Y-134850143D01*
X167957405Y-134707286D01*
X168005024Y-134516810D01*
X168005024Y-134135857D01*
X167957405Y-134040619D01*
X167909786Y-133993000D01*
X167814548Y-133945381D01*
X167624071Y-133945381D01*
X167528833Y-133993000D01*
X167481214Y-134040619D01*
X167433595Y-134135857D01*
X167433595Y-134373952D01*
X167481214Y-134469190D01*
X167528833Y-134516810D01*
X167624071Y-134564429D01*
X167814548Y-134564429D01*
X167909786Y-134516810D01*
X167957405Y-134469190D01*
X168005024Y-134373952D01*
X109601095Y-78700381D02*
X109601095Y-79509905D01*
X109648714Y-79605143D01*
X109696333Y-79652762D01*
X109791571Y-79700381D01*
X109982048Y-79700381D01*
X110077286Y-79652762D01*
X110124905Y-79605143D01*
X110172524Y-79509905D01*
X110172524Y-78700381D01*
X110791571Y-79128952D02*
X110696333Y-79081333D01*
X110648714Y-79033714D01*
X110601095Y-78938476D01*
X110601095Y-78890857D01*
X110648714Y-78795619D01*
X110696333Y-78748000D01*
X110791571Y-78700381D01*
X110982048Y-78700381D01*
X111077286Y-78748000D01*
X111124905Y-78795619D01*
X111172524Y-78890857D01*
X111172524Y-78938476D01*
X111124905Y-79033714D01*
X111077286Y-79081333D01*
X110982048Y-79128952D01*
X110791571Y-79128952D01*
X110696333Y-79176571D01*
X110648714Y-79224190D01*
X110601095Y-79319429D01*
X110601095Y-79509905D01*
X110648714Y-79605143D01*
X110696333Y-79652762D01*
X110791571Y-79700381D01*
X110982048Y-79700381D01*
X111077286Y-79652762D01*
X111124905Y-79605143D01*
X111172524Y-79509905D01*
X111172524Y-79319429D01*
X111124905Y-79224190D01*
X111077286Y-79176571D01*
X110982048Y-79128952D01*
X146240595Y-124039381D02*
X146240595Y-124848905D01*
X146288214Y-124944143D01*
X146335833Y-124991762D01*
X146431071Y-125039381D01*
X146621548Y-125039381D01*
X146716786Y-124991762D01*
X146764405Y-124944143D01*
X146812024Y-124848905D01*
X146812024Y-124039381D01*
X147716786Y-124372714D02*
X147716786Y-125039381D01*
X147478690Y-123991762D02*
X147240595Y-124706048D01*
X147859643Y-124706048D01*
X133818334Y-77463381D02*
X133485000Y-76987190D01*
X133246905Y-77463381D02*
X133246905Y-76463381D01*
X133627858Y-76463381D01*
X133723096Y-76511000D01*
X133770715Y-76558619D01*
X133818334Y-76653857D01*
X133818334Y-76796714D01*
X133770715Y-76891952D01*
X133723096Y-76939571D01*
X133627858Y-76987190D01*
X133246905Y-76987190D01*
X134675477Y-76796714D02*
X134675477Y-77463381D01*
X134437381Y-76415762D02*
X134199286Y-77130048D01*
X134818334Y-77130048D01*
X140168334Y-74063381D02*
X139835000Y-73587190D01*
X139596905Y-74063381D02*
X139596905Y-73063381D01*
X139977858Y-73063381D01*
X140073096Y-73111000D01*
X140120715Y-73158619D01*
X140168334Y-73253857D01*
X140168334Y-73396714D01*
X140120715Y-73491952D01*
X140073096Y-73539571D01*
X139977858Y-73587190D01*
X139596905Y-73587190D01*
X140501667Y-73063381D02*
X141120715Y-73063381D01*
X140787381Y-73444333D01*
X140930239Y-73444333D01*
X141025477Y-73491952D01*
X141073096Y-73539571D01*
X141120715Y-73634810D01*
X141120715Y-73872905D01*
X141073096Y-73968143D01*
X141025477Y-74015762D01*
X140930239Y-74063381D01*
X140644524Y-74063381D01*
X140549286Y-74015762D01*
X140501667Y-73968143D01*
X165377834Y-99907881D02*
X165044500Y-99431690D01*
X164806405Y-99907881D02*
X164806405Y-98907881D01*
X165187358Y-98907881D01*
X165282596Y-98955500D01*
X165330215Y-99003119D01*
X165377834Y-99098357D01*
X165377834Y-99241214D01*
X165330215Y-99336452D01*
X165282596Y-99384071D01*
X165187358Y-99431690D01*
X164806405Y-99431690D01*
X165758786Y-99003119D02*
X165806405Y-98955500D01*
X165901643Y-98907881D01*
X166139739Y-98907881D01*
X166234977Y-98955500D01*
X166282596Y-99003119D01*
X166330215Y-99098357D01*
X166330215Y-99193595D01*
X166282596Y-99336452D01*
X165711167Y-99907881D01*
X166330215Y-99907881D01*
X183791381Y-111228166D02*
X183315190Y-111561500D01*
X183791381Y-111799595D02*
X182791381Y-111799595D01*
X182791381Y-111418642D01*
X182839000Y-111323404D01*
X182886619Y-111275785D01*
X182981857Y-111228166D01*
X183124714Y-111228166D01*
X183219952Y-111275785D01*
X183267571Y-111323404D01*
X183315190Y-111418642D01*
X183315190Y-111799595D01*
X183791381Y-110275785D02*
X183791381Y-110847214D01*
X183791381Y-110561500D02*
X182791381Y-110561500D01*
X182934238Y-110656738D01*
X183029476Y-110751976D01*
X183077095Y-110847214D01*
D12*
X185585214Y-125129857D02*
X185585214Y-123929857D01*
X185585214Y-124501286D02*
X186270929Y-124501286D01*
X186270929Y-125129857D02*
X186270929Y-123929857D01*
X187356643Y-123929857D02*
X187128072Y-123929857D01*
X187013786Y-123987000D01*
X186956643Y-124044143D01*
X186842357Y-124215571D01*
X186785214Y-124444143D01*
X186785214Y-124901286D01*
X186842357Y-125015571D01*
X186899500Y-125072714D01*
X187013786Y-125129857D01*
X187242357Y-125129857D01*
X187356643Y-125072714D01*
X187413786Y-125015571D01*
X187470929Y-124901286D01*
X187470929Y-124615571D01*
X187413786Y-124501286D01*
X187356643Y-124444143D01*
X187242357Y-124387000D01*
X187013786Y-124387000D01*
X186899500Y-124444143D01*
X186842357Y-124501286D01*
X186785214Y-124615571D01*
X185585214Y-99602857D02*
X185585214Y-98402857D01*
X185585214Y-98974286D02*
X186270929Y-98974286D01*
X186270929Y-99602857D02*
X186270929Y-98402857D01*
X187413786Y-98402857D02*
X186842357Y-98402857D01*
X186785214Y-98974286D01*
X186842357Y-98917143D01*
X186956643Y-98860000D01*
X187242357Y-98860000D01*
X187356643Y-98917143D01*
X187413786Y-98974286D01*
X187470929Y-99088571D01*
X187470929Y-99374286D01*
X187413786Y-99488571D01*
X187356643Y-99545714D01*
X187242357Y-99602857D01*
X186956643Y-99602857D01*
X186842357Y-99545714D01*
X186785214Y-99488571D01*
X192443214Y-72107357D02*
X192443214Y-70907357D01*
X192443214Y-71478786D02*
X193128929Y-71478786D01*
X193128929Y-72107357D02*
X193128929Y-70907357D01*
X194214643Y-71307357D02*
X194214643Y-72107357D01*
X193928929Y-70850214D02*
X193643214Y-71707357D01*
X194386072Y-71707357D01*
X91097214Y-125193357D02*
X91097214Y-123993357D01*
X91097214Y-124564786D02*
X91782929Y-124564786D01*
X91782929Y-125193357D02*
X91782929Y-123993357D01*
X92240072Y-123993357D02*
X92982929Y-123993357D01*
X92582929Y-124450500D01*
X92754357Y-124450500D01*
X92868643Y-124507643D01*
X92925786Y-124564786D01*
X92982929Y-124679071D01*
X92982929Y-124964786D01*
X92925786Y-125079071D01*
X92868643Y-125136214D01*
X92754357Y-125193357D01*
X92411500Y-125193357D01*
X92297214Y-125136214D01*
X92240072Y-125079071D01*
X84747214Y-72107357D02*
X84747214Y-70907357D01*
X84747214Y-71478786D02*
X85432929Y-71478786D01*
X85432929Y-72107357D02*
X85432929Y-70907357D01*
X86632929Y-72107357D02*
X85947214Y-72107357D01*
X86290072Y-72107357D02*
X86290072Y-70907357D01*
X86175786Y-71078786D01*
X86061500Y-71193071D01*
X85947214Y-71250214D01*
D13*
X139184143Y-82569643D02*
X139136524Y-82617262D01*
X138993667Y-82664881D01*
X138898429Y-82664881D01*
X138755571Y-82617262D01*
X138660333Y-82522024D01*
X138612714Y-82426786D01*
X138565095Y-82236310D01*
X138565095Y-82093452D01*
X138612714Y-81902976D01*
X138660333Y-81807738D01*
X138755571Y-81712500D01*
X138898429Y-81664881D01*
X138993667Y-81664881D01*
X139136524Y-81712500D01*
X139184143Y-81760119D01*
X140136524Y-82664881D02*
X139565095Y-82664881D01*
X139850809Y-82664881D02*
X139850809Y-81664881D01*
X139755571Y-81807738D01*
X139660333Y-81902976D01*
X139565095Y-81950595D01*
X140469857Y-81664881D02*
X141088905Y-81664881D01*
X140755571Y-82045833D01*
X140898429Y-82045833D01*
X140993667Y-82093452D01*
X141041286Y-82141071D01*
X141088905Y-82236310D01*
X141088905Y-82474405D01*
X141041286Y-82569643D01*
X140993667Y-82617262D01*
X140898429Y-82664881D01*
X140612714Y-82664881D01*
X140517476Y-82617262D01*
X140469857Y-82569643D01*
X93682143Y-88590357D02*
X93729762Y-88637976D01*
X93777381Y-88780833D01*
X93777381Y-88876071D01*
X93729762Y-89018929D01*
X93634524Y-89114167D01*
X93539286Y-89161786D01*
X93348810Y-89209405D01*
X93205952Y-89209405D01*
X93015476Y-89161786D01*
X92920238Y-89114167D01*
X92825000Y-89018929D01*
X92777381Y-88876071D01*
X92777381Y-88780833D01*
X92825000Y-88637976D01*
X92872619Y-88590357D01*
X93777381Y-87637976D02*
X93777381Y-88209405D01*
X93777381Y-87923691D02*
X92777381Y-87923691D01*
X92920238Y-88018929D01*
X93015476Y-88114167D01*
X93063095Y-88209405D01*
X92872619Y-87257024D02*
X92825000Y-87209405D01*
X92777381Y-87114167D01*
X92777381Y-86876071D01*
X92825000Y-86780833D01*
X92872619Y-86733214D01*
X92967857Y-86685595D01*
X93063095Y-86685595D01*
X93205952Y-86733214D01*
X93777381Y-87304643D01*
X93777381Y-86685595D01*
X137941643Y-80430666D02*
X137989262Y-80478285D01*
X138036881Y-80621142D01*
X138036881Y-80716380D01*
X137989262Y-80859238D01*
X137894024Y-80954476D01*
X137798786Y-81002095D01*
X137608310Y-81049714D01*
X137465452Y-81049714D01*
X137274976Y-81002095D01*
X137179738Y-80954476D01*
X137084500Y-80859238D01*
X137036881Y-80716380D01*
X137036881Y-80621142D01*
X137084500Y-80478285D01*
X137132119Y-80430666D01*
X137036881Y-79525904D02*
X137036881Y-80002095D01*
X137513071Y-80049714D01*
X137465452Y-80002095D01*
X137417833Y-79906857D01*
X137417833Y-79668761D01*
X137465452Y-79573523D01*
X137513071Y-79525904D01*
X137608310Y-79478285D01*
X137846405Y-79478285D01*
X137941643Y-79525904D01*
X137989262Y-79573523D01*
X138036881Y-79668761D01*
X138036881Y-79906857D01*
X137989262Y-80002095D01*
X137941643Y-80049714D01*
X186646143Y-116054166D02*
X186693762Y-116101785D01*
X186741381Y-116244642D01*
X186741381Y-116339880D01*
X186693762Y-116482738D01*
X186598524Y-116577976D01*
X186503286Y-116625595D01*
X186312810Y-116673214D01*
X186169952Y-116673214D01*
X185979476Y-116625595D01*
X185884238Y-116577976D01*
X185789000Y-116482738D01*
X185741381Y-116339880D01*
X185741381Y-116244642D01*
X185789000Y-116101785D01*
X185836619Y-116054166D01*
X185741381Y-115720833D02*
X185741381Y-115101785D01*
X186122333Y-115435119D01*
X186122333Y-115292261D01*
X186169952Y-115197023D01*
X186217571Y-115149404D01*
X186312810Y-115101785D01*
X186550905Y-115101785D01*
X186646143Y-115149404D01*
X186693762Y-115197023D01*
X186741381Y-115292261D01*
X186741381Y-115577976D01*
X186693762Y-115673214D01*
X186646143Y-115720833D01*
M02*
