M48
;DRILL file {KiCad 4.0.6} date 09/02/17 13:52:11
;FORMAT={-:-/ absolute / inch / decimal}
FMAT,2
INCH,TZ
T1C0.016
T2C0.031
T3C0.039
T4C0.043
T5C0.100
%
G90
G05
M72
T1
X3.1375Y-5.5675
X3.27Y-5.015
X3.275Y-4.2575
X3.275Y-4.31
X3.28Y-3.3025
X3.29Y-4.1775
X3.2975Y-4.915
X3.3075Y-3.215
X3.3125Y-4.0925
X3.3225Y-4.81
X3.34Y-3.1075
X3.34Y-4.015
X3.35Y-4.71
X3.3775Y-3.0125
X3.3775Y-3.935
X3.3775Y-4.61
X3.4025Y-3.8675
X3.4025Y-4.51
X3.405Y-2.905
X3.4275Y-3.675
X3.4275Y-4.4125
X3.455Y-4.315
X3.575Y-4.2025
X3.5825Y-4.36
X3.6525Y-4.1075
X3.6525Y-4.255
X3.6525Y-4.36
X3.6525Y-4.595
X3.655Y-4.41
X3.84Y-3.0525
X3.8675Y-5.565
X3.905Y-4.2175
X3.945Y-4.4125
X3.97Y-3.9975
X3.9975Y-3.4825
X4.0275Y-4.575
X4.0275Y-4.81
X4.035Y-4.8625
X4.0425Y-5.165
X4.06Y-3.355
X4.13Y-4.415
X4.1325Y-4.86
X4.1325Y-5.11
X4.135Y-4.81
X4.1375Y-4.575
X4.1375Y-4.6175
X4.1425Y-5.1975
X4.145Y-4.72
X4.1525Y-5.3225
X4.275Y-4.86
X4.29Y-5.1775
X4.395Y-3.0575
X4.4625Y-4.31
X4.465Y-4.5425
X4.4675Y-4.6125
X4.4725Y-3.4825
X4.5075Y-4.7125
X4.52Y-4.0125
X4.5375Y-4.4125
X4.5425Y-3.545
X4.5425Y-4.8125
X4.545Y-3.8225
X4.55Y-4.25
X4.5525Y-3.325
X4.5525Y-4.3775
X4.555Y-5.545
X4.5775Y-3.7075
X4.585Y-3.7425
X4.585Y-3.84
X4.585Y-4.2575
X4.635Y-4.8625
X4.6475Y-3.2375
X4.675Y-4.95
X4.675Y-5.175
X4.7375Y-5.38
X4.77Y-4.77
X4.8175Y-5.5275
X4.8175Y-5.5975
X4.835Y-4.255
X4.8425Y-4.86
X4.885Y-4.315
X4.8925Y-3.79
X4.945Y-3.39
X4.9575Y-4.15
X5.0175Y-3.1975
X5.0275Y-3.7525
X5.045Y-3.31
X5.045Y-4.1125
X5.0475Y-4.245
X5.0575Y-3.68
X5.1025Y-3.88
X5.12Y-3.7325
X5.17Y-3.5
X5.175Y-3.91
X5.2275Y-4.565
X5.2475Y-3.8975
X5.26Y-4.2725
X5.26Y-5.1425
X5.3Y-4.035
X5.3025Y-4.7475
X5.3025Y-4.865
X5.3025Y-5.51
X5.325Y-3.9825
X5.4625Y-4.6275
X5.4725Y-4.415
X5.495Y-3.3875
X5.495Y-5.52
X5.495Y-5.6075
X5.535Y-4.7175
X5.55Y-4.5375
X5.5525Y-4.8525
X5.5575Y-3.47
X5.5575Y-4.905
X5.58Y-4.495
X5.5975Y-5.905
X5.6Y-4.9675
X5.61Y-4.59
X5.66Y-5.7825
X5.6775Y-4.44
X5.76Y-4.595
X5.81Y-4.2975
X5.8275Y-4.53
X5.865Y-4.265
X5.87Y-4.49
X5.8825Y-3.11
X5.9075Y-5.5075
X5.9275Y-4.855
X5.945Y-4.305
X5.9525Y-4.215
X5.97Y-4.5275
X5.9925Y-5.4225
X6.055Y-5.0375
X6.0625Y-3.8575
X6.235Y-4.3425
X6.2525Y-4.405
X6.255Y-3.4325
X6.2625Y-3.3025
X6.2675Y-4.4425
X6.285Y-4.105
X6.2925Y-4.94
X6.2975Y-5.53
X6.3025Y-3.4775
X6.38Y-4.105
X6.38Y-5.5425
X6.405Y-3.8675
X6.46Y-3.8875
X6.4625Y-3.6975
X6.4625Y-5.625
X6.4725Y-5.845
X6.475Y-4.2425
X6.49Y-3.645
X6.51Y-4.7425
X6.515Y-4.4425
X6.6025Y-3.845
X6.6125Y-4.64
X6.615Y-3.435
X6.62Y-4.6825
X6.6225Y-4.215
X6.6275Y-4.39
X6.6275Y-4.5425
X6.6275Y-4.7975
X6.63Y-4.13
X6.635Y-4.72
X6.6625Y-4.27
X6.665Y-4.345
X6.6825Y-4.92
X6.725Y-3.8425
X6.78Y-5.545
X6.8725Y-3.8675
X6.8725Y-4.165
X6.885Y-5.02
X6.8875Y-3.7875
X6.9125Y-4.1825
X6.955Y-4.3
X6.98Y-3.7875
X6.98Y-4.04
X6.9875Y-4.5375
X7.0075Y-3.9675
X7.01Y-4.4675
X7.03Y-4.5675
X7.145Y-3.7025
X7.1875Y-4.13
X7.2225Y-5.93
X7.2375Y-4.1675
X7.33Y-4.6775
X7.3375Y-4.6075
X7.3375Y-4.8125
X7.365Y-4.3925
X7.375Y-3.9625
X7.4925Y-3.755
X7.5Y-3.9725
X7.5Y-4.5625
X7.5025Y-4.76
X7.51Y-4.6625
X7.5925Y-3.8075
X7.6325Y-4.365
X7.635Y-4.0725
X7.6375Y-3.805
X7.655Y-4.5625
X7.655Y-4.92
X7.67Y-5.3925
X7.68Y-4.16
X7.7075Y-4.35
X7.8Y-4.66
X7.8275Y-4.7025
X7.835Y-4.31
X7.8625Y-3.88
X7.9Y-4.1575
T2
X3.21Y-2.905
X3.21Y-3.005
X3.21Y-3.105
X3.21Y-3.205
X3.21Y-3.305
X3.21Y-3.405
X3.21Y-3.505
X3.21Y-3.605
X3.21Y-3.705
X3.21Y-3.805
X3.21Y-3.91
X3.21Y-4.01
X3.21Y-4.11
X3.21Y-4.21
X3.21Y-4.31
X3.21Y-4.41
X3.21Y-4.51
X3.21Y-4.61
X3.21Y-4.71
X3.21Y-4.81
X3.21Y-4.915
X3.21Y-5.015
X3.21Y-5.115
X3.21Y-5.215
X3.21Y-5.315
X3.21Y-5.415
X3.21Y-5.515
X3.21Y-5.615
X3.21Y-5.715
X3.21Y-5.815
X3.51Y-2.905
X3.51Y-3.005
X3.51Y-3.105
X3.51Y-3.205
X3.51Y-3.305
X3.51Y-3.405
X3.51Y-3.505
X3.51Y-3.605
X3.51Y-3.705
X3.51Y-3.805
X3.51Y-3.91
X3.51Y-4.01
X3.51Y-4.11
X3.51Y-4.21
X3.51Y-4.31
X3.51Y-4.41
X3.51Y-4.51
X3.51Y-4.61
X3.51Y-4.71
X3.51Y-4.81
X3.51Y-4.915
X3.51Y-5.015
X3.51Y-5.115
X3.51Y-5.215
X3.51Y-5.315
X3.51Y-5.415
X3.51Y-5.515
X3.51Y-5.615
X3.51Y-5.715
X3.51Y-5.815
X5.2225Y-3.8075
X5.2225Y-4.1075
X5.3225Y-3.8075
X5.3225Y-4.1075
X5.4225Y-3.8075
X5.4225Y-4.1075
X5.5225Y-3.8075
X5.5225Y-4.1075
X5.6225Y-3.8075
X5.6225Y-4.1075
X5.7225Y-3.8075
X5.7225Y-4.1075
X5.8225Y-3.8075
X5.8225Y-4.1075
X5.9225Y-3.8075
X5.9225Y-4.1075
X6.1125Y-4.1925
X6.1125Y-4.2925
X6.1125Y-4.3925
X6.1125Y-4.4925
X6.1125Y-4.5925
X6.1125Y-4.6925
X6.1125Y-4.7925
X6.4125Y-4.1925
X6.4125Y-4.2925
X6.4125Y-4.3925
X6.4125Y-4.4925
X6.4125Y-4.5925
X6.4125Y-4.6925
X6.4125Y-4.7925
X6.7975Y-3.8175
X6.7975Y-3.9175
X6.7975Y-4.0175
X6.7975Y-4.1175
X6.7975Y-4.2175
X6.7975Y-4.3175
X6.7975Y-4.4175
X6.7975Y-4.5175
X6.7975Y-4.6175
X6.7975Y-4.7175
X6.7975Y-4.8175
X6.7975Y-4.9175
X7.0975Y-3.8175
X7.0975Y-3.9175
X7.0975Y-4.0175
X7.0975Y-4.1175
X7.0975Y-4.2175
X7.0975Y-4.3175
X7.0975Y-4.4175
X7.0975Y-4.5175
X7.0975Y-4.6175
X7.0975Y-4.7175
X7.0975Y-4.8175
X7.0975Y-4.9175
X7.45Y-2.905
X7.45Y-3.005
X7.45Y-3.105
X7.45Y-3.205
X7.45Y-3.305
X7.45Y-3.405
X7.45Y-3.505
X7.45Y-3.605
X7.45Y-3.705
X7.45Y-3.805
X7.45Y-3.91
X7.45Y-4.01
X7.45Y-4.11
X7.45Y-4.21
X7.45Y-4.31
X7.45Y-4.41
X7.45Y-4.51
X7.45Y-4.61
X7.45Y-4.71
X7.45Y-4.81
X7.45Y-4.915
X7.45Y-5.015
X7.45Y-5.115
X7.45Y-5.215
X7.45Y-5.315
X7.45Y-5.415
X7.45Y-5.515
X7.45Y-5.615
X7.45Y-5.715
X7.45Y-5.815
X7.75Y-2.905
X7.75Y-3.005
X7.75Y-3.105
X7.75Y-3.205
X7.75Y-3.305
X7.75Y-3.405
X7.75Y-3.505
X7.75Y-3.605
X7.75Y-3.705
X7.75Y-3.805
X7.75Y-3.91
X7.75Y-4.01
X7.75Y-4.11
X7.75Y-4.21
X7.75Y-4.31
X7.75Y-4.41
X7.75Y-4.51
X7.75Y-4.61
X7.75Y-4.71
X7.75Y-4.81
X7.75Y-4.915
X7.75Y-5.015
X7.75Y-5.115
X7.75Y-5.215
X7.75Y-5.315
X7.75Y-5.415
X7.75Y-5.515
X7.75Y-5.615
X7.75Y-5.715
X7.75Y-5.815
T3
X3.7225Y-3.6075
X3.8225Y-3.6075
X3.9225Y-3.6075
X4.0225Y-3.6075
X4.1225Y-3.6075
X4.495Y-2.82
X4.495Y-3.62
X4.595Y-2.82
X4.595Y-3.62
X4.695Y-2.82
X4.695Y-3.62
X4.73Y-4.265
X4.73Y-4.365
X4.73Y-4.465
X4.795Y-2.82
X4.795Y-3.62
X4.895Y-2.82
X4.895Y-3.62
X4.995Y-2.82
X4.995Y-3.62
X5.095Y-2.82
X5.095Y-3.62
X5.195Y-2.82
X5.195Y-3.62
X5.295Y-2.82
X5.295Y-3.62
X5.395Y-2.82
X5.395Y-3.62
X5.495Y-2.82
X5.495Y-3.62
X5.8125Y-5.055
X5.8125Y-5.155
X5.8125Y-5.255
X5.8125Y-5.355
X5.8125Y-5.455
X5.8125Y-5.555
X5.8125Y-5.655
X6.1925Y-5.18
X6.1925Y-5.28
X6.1925Y-5.38
X6.1925Y-5.48
X6.1925Y-5.58
X6.1925Y-5.68
X6.1925Y-5.78
X6.1925Y-5.88
X7.2725Y-2.8025
X7.3725Y-2.8025
X7.4725Y-2.8025
X7.5725Y-2.8025
X7.6725Y-2.8025
X7.7725Y-2.8025
T4
X3.775Y-3.9625
X3.775Y-4.0625
X3.775Y-4.1625
X3.775Y-4.2625
X3.775Y-4.3625
X3.775Y-4.4625
X3.775Y-4.5625
X3.775Y-4.6625
X3.775Y-4.7625
X3.775Y-4.8625
X3.775Y-4.9624
X3.775Y-5.0625
X3.875Y-4.3625
X3.875Y-4.4625
X4.375Y-3.9625
X4.375Y-4.0625
X4.375Y-4.1625
X4.375Y-4.2625
X4.375Y-4.3625
X4.375Y-4.4625
X4.375Y-4.5625
X4.375Y-4.6625
X4.375Y-4.7625
X4.375Y-4.8625
X4.375Y-4.9624
X4.375Y-5.0625
T5
X3.01Y-2.65
X3.01Y-5.85
X3.6975Y-2.8325
X4.1475Y-2.8325
X4.37Y-2.845
X4.37Y-3.595
X5.1725Y-5.055
X5.1725Y-5.655
X5.72Y-2.845
X5.72Y-3.595
X6.2025Y-3.78
X6.7925Y-5.23
X6.7925Y-5.83
X7.9475Y-2.8525
X7.9475Y-3.5525
X7.95Y-2.65
X7.95Y-5.85
T0
M30
